# 3ds Max Wavefront OBJ Exporter v0.97b - (c)2007 guruware
# File Created: 15.11.2022 02:57:09

mtllib Billete100GSTASTYPY.mtl

#
# object TastyPY
#

v  -0.0959 0.0833 -0.0505
v  -0.0960 0.0833 -0.0505
v  -0.0961 0.0833 -0.0504
v  -0.0961 0.0833 0.0407
v  -0.0960 0.0833 0.0408
v  -0.0959 0.0833 0.0408
v  -0.0447 0.0800 0.0408
v  -0.0447 0.0800 -0.0505
v  -0.0959 0.0382 -0.0505
v  -0.0447 0.0382 -0.0505
v  -0.0447 0.0382 0.0408
v  -0.0959 0.0382 0.0408
v  -0.0960 0.0382 0.0408
v  -0.0961 0.0382 0.0407
v  -0.0961 0.0382 -0.0504
v  -0.0960 0.0382 -0.0505
v  -0.0457 0.0669 0.0409
v  -0.0448 0.0796 0.0409
v  -0.0960 0.0829 0.0409
v  -0.0978 0.0757 0.0409
v  0.1090 0.0808 -0.0505
v  0.1090 0.0808 0.0409
v  0.1108 0.0758 0.0409
v  0.1108 0.0758 -0.0505
v  0.0846 0.0702 -0.0506
v  0.0832 0.0783 -0.0506
v  0.1088 0.0806 -0.0506
v  0.1106 0.0757 -0.0506
v  -0.0962 0.0831 0.0409
v  -0.0962 0.0831 -0.0505
v  -0.0980 0.0758 -0.0505
v  -0.0980 0.0758 0.0409
v  0.0064 0.0735 -0.0505
v  0.0064 0.0735 0.0408
v  0.0576 0.0754 0.0408
v  0.0576 0.0754 -0.0505
v  0.0064 0.0382 0.0408
v  0.0064 0.0382 -0.0505
v  0.0576 0.0382 -0.0505
v  0.0576 0.0382 0.0408
v  0.0064 0.0581 0.0409
v  0.0064 0.0386 0.0409
v  0.0576 0.0386 0.0409
v  0.0585 0.0518 0.0409
v  0.0064 0.0537 -0.0506
v  0.0064 0.0386 -0.0506
v  -0.0448 0.0386 -0.0506
v  -0.0457 0.0497 -0.0506
v  -0.0457 0.0518 0.0409
v  -0.0978 0.0456 0.0409
v  -0.0960 0.0386 0.0409
v  -0.0448 0.0386 0.0409
v  0.1108 0.0456 -0.0505
v  0.1108 0.0456 0.0409
v  0.1090 0.0384 0.0409
v  0.1090 0.0384 -0.0505
v  0.0846 0.0477 -0.0506
v  0.1106 0.0456 -0.0506
v  0.1088 0.0386 -0.0506
v  0.0832 0.0386 -0.0506
v  -0.0979 0.0456 0.0409
v  -0.0979 0.0456 -0.0505
v  -0.0962 0.0384 -0.0505
v  -0.0962 0.0384 0.0409
v  0.0846 0.0713 0.0409
v  0.1106 0.0757 0.0409
v  0.1088 0.0806 0.0409
v  0.0832 0.0783 0.0409
v  -0.0457 0.0647 -0.0506
v  -0.0978 0.0757 -0.0506
v  -0.0960 0.0829 -0.0506
v  -0.0448 0.0796 -0.0506
v  -0.0992 0.0682 0.0409
v  -0.0464 0.0631 0.0409
v  0.1122 0.0683 0.0409
v  0.1122 0.0683 -0.0505
v  0.0856 0.0646 -0.0506
v  0.1120 0.0682 -0.0506
v  -0.0994 0.0683 -0.0505
v  -0.0994 0.0683 0.0409
v  0.0856 0.0544 0.0409
v  0.0846 0.0487 0.0409
v  0.1106 0.0456 0.0409
v  0.1120 0.0532 0.0409
v  -0.0978 0.0456 -0.0506
v  -0.0992 0.0532 -0.0506
v  -0.0464 0.0534 -0.0506
v  -0.0998 0.0607 0.0409
v  -0.0466 0.0594 0.0409
v  -0.0992 0.0532 0.0409
v  -0.0464 0.0556 0.0409
v  0.1126 0.0607 0.0409
v  0.1126 0.0607 -0.0506
v  0.1122 0.0531 0.0409
v  0.1122 0.0531 -0.0505
v  0.0860 0.0590 -0.0506
v  0.1120 0.0532 -0.0506
v  0.0856 0.0533 -0.0506
v  -0.0998 0.0607 -0.0506
v  -0.0993 0.0531 -0.0505
v  -0.0993 0.0531 0.0409
v  0.0860 0.0600 0.0409
v  0.1120 0.0682 0.0409
v  0.0856 0.0657 0.0409
v  -0.0466 0.0572 -0.0506
v  -0.0992 0.0682 -0.0506
v  -0.0464 0.0610 -0.0506
v  -0.0960 0.0832 0.0409
v  -0.0448 0.0799 0.0409
v  0.1089 0.0810 0.0407
v  0.1090 0.0809 0.0408
v  0.1090 0.0809 -0.0505
v  0.1089 0.0810 -0.0504
v  0.0832 0.0786 -0.0506
v  0.0831 0.0787 -0.0505
v  0.1087 0.0810 -0.0505
v  0.1088 0.0809 -0.0506
v  -0.0961 0.0832 -0.0505
v  -0.0961 0.0832 0.0408
v  -0.0961 0.0382 0.0408
v  -0.0961 0.0382 -0.0505
v  -0.0960 0.0382 -0.0506
v  -0.0448 0.0382 -0.0506
v  0.1089 0.0382 -0.0504
v  0.1090 0.0382 -0.0505
v  0.1090 0.0382 0.0408
v  0.1089 0.0382 0.0407
v  0.0832 0.0382 0.0409
v  0.0831 0.0382 0.0408
v  0.1087 0.0382 0.0408
v  0.1088 0.0382 0.0409
v  0.0576 0.0753 0.0409
v  -0.0448 0.0799 -0.0506
v  0.0576 0.0382 -0.0506
v  -0.0448 0.0382 0.0409
v  -0.0448 0.0798 0.0409
v  0.0833 0.0785 -0.0506
v  -0.0448 0.0384 -0.0506
v  0.0833 0.0384 0.0409
v  0.0064 0.0734 0.0409
v  0.0577 0.0752 0.0409
v  0.0064 0.0734 -0.0506
v  -0.0448 0.0798 -0.0506
v  0.0064 0.0384 -0.0506
v  0.0577 0.0384 -0.0506
v  0.0064 0.0384 0.0409
v  -0.0448 0.0384 0.0409
v  0.1088 0.0809 0.0409
v  -0.0960 0.0832 -0.0506
v  0.1088 0.0810 -0.0505
v  -0.0960 0.0382 0.0409
v  0.1088 0.0382 0.0408
v  0.1088 0.0382 -0.0506
v  0.1088 0.0810 0.0408
v  0.1087 0.0810 0.0408
v  0.1088 0.0382 -0.0505
v  0.1087 0.0382 -0.0505
v  0.0577 0.0384 0.0409
v  0.1088 0.0386 0.0409
v  0.0833 0.0785 0.0409
v  0.0064 0.0732 0.0409
v  -0.0960 0.0386 -0.0506
v  0.0064 0.0732 -0.0506
v  0.0577 0.0752 -0.0506
v  0.0576 0.0750 -0.0506
v  0.0833 0.0384 -0.0506
v  0.0064 0.0747 0.0413
v  0.0234 0.0763 0.0413
v  0.0234 0.0764 -0.0510
v  0.0064 0.0748 -0.0510
v  0.0064 0.0369 -0.0510
v  0.0234 0.0369 -0.0510
v  0.0234 0.0369 0.0413
v  0.0064 0.0369 0.0413
v  0.0064 0.0582 0.0414
v  0.0064 0.0371 0.0413
v  0.0234 0.0371 0.0413
v  0.0234 0.0761 0.0414
v  0.0064 0.0745 0.0414
v  -0.0106 0.0762 -0.0511
v  0.0064 0.0746 -0.0511
v  0.0064 0.0535 -0.0511
v  0.0064 0.0371 -0.0511
v  -0.0106 0.0371 -0.0511
v  0.0234 0.0762 -0.0511
v  0.0234 0.0371 -0.0511
v  -0.0106 0.0763 0.0413
v  -0.0106 0.0764 -0.0510
v  -0.0106 0.0369 -0.0510
v  -0.0106 0.0369 0.0413
v  -0.0106 0.0761 0.0414
v  -0.0106 0.0371 0.0413
v  0.0235 0.0762 -0.0509
v  0.0235 0.0761 0.0411
v  0.0235 0.0748 0.0405
v  0.0235 0.0749 -0.0503
v  0.0235 0.0371 0.0411
v  0.0235 0.0371 -0.0509
v  0.0235 0.0384 -0.0502
v  0.0235 0.0384 0.0405
v  0.0235 0.0758 0.0413
v  0.0235 0.0374 0.0412
v  0.0235 0.0387 0.0406
v  0.0235 0.0744 0.0407
v  -0.0107 0.0759 -0.0510
v  -0.0107 0.0374 -0.0510
v  -0.0107 0.0387 -0.0504
v  -0.0108 0.0746 -0.0504
v  0.0235 0.0374 -0.0510
v  0.0235 0.0759 -0.0510
v  0.0235 0.0746 -0.0504
v  0.0235 0.0387 -0.0504
v  -0.0108 0.0761 0.0411
v  -0.0107 0.0762 -0.0509
v  -0.0108 0.0749 -0.0503
v  -0.0108 0.0748 0.0405
v  -0.0107 0.0371 -0.0509
v  -0.0107 0.0371 0.0411
v  -0.0107 0.0384 0.0405
v  -0.0107 0.0384 -0.0502
v  -0.0107 0.0374 0.0412
v  -0.0108 0.0758 0.0413
v  -0.0108 0.0744 0.0407
v  -0.0107 0.0387 0.0406
v  0.0235 0.0762 0.0412
v  0.0234 0.0369 0.0412
v  0.0234 0.0372 0.0413
v  0.0235 0.0760 0.0413
v  -0.0107 0.0372 -0.0511
v  -0.0107 0.0761 -0.0511
v  0.0234 0.0761 -0.0511
v  0.0234 0.0372 -0.0511
v  -0.0107 0.0764 -0.0510
v  -0.0107 0.0762 0.0412
v  -0.0107 0.0369 0.0412
v  -0.0107 0.0369 -0.0510
v  -0.0107 0.0760 0.0413
v  -0.0107 0.0372 0.0413
v  0.0235 0.0760 0.0412
v  0.0235 0.0747 0.0406
v  0.0235 0.0748 -0.0504
v  0.0235 0.0762 -0.0510
v  0.0235 0.0371 -0.0510
v  0.0235 0.0384 -0.0504
v  0.0235 0.0384 0.0406
v  0.0235 0.0371 0.0412
v  -0.0107 0.0371 -0.0510
v  -0.0107 0.0384 -0.0504
v  -0.0108 0.0748 -0.0504
v  -0.0107 0.0762 -0.0510
v  -0.0108 0.0747 0.0406
v  -0.0108 0.0760 0.0412
v  -0.0107 0.0371 0.0412
v  -0.0107 0.0384 0.0406
v  -0.0107 0.0763 -0.0511
v  0.0234 0.0370 -0.0511
v  -0.0107 0.0370 0.0413
v  0.0235 0.0762 0.0413
v  -0.0107 0.0762 0.0413
v  0.0234 0.0763 -0.0511
v  0.0234 0.0370 0.0413
v  -0.0107 0.0370 -0.0511
v  0.0585 0.0647 -0.0506
v  0.0831 0.0787 0.0408
v  0.0831 0.0382 -0.0505
v  0.0832 0.0386 0.0409
v  0.0585 0.0497 -0.0506
v  0.0576 0.0386 -0.0506
v  0.0585 0.0669 0.0409
v  0.0576 0.0750 0.0409
v  0.0592 0.0610 -0.0506
v  0.0592 0.0556 0.0409
v  0.0594 0.0572 -0.0506
v  0.0592 0.0534 -0.0506
v  0.0594 0.0594 0.0409
v  0.0592 0.0631 0.0409
v  0.0576 0.0753 -0.0506
v  0.0576 0.0382 0.0409
v  0.0832 0.0786 0.0409
v  0.0832 0.0382 -0.0506
# 280 vertices

vn 0.0384 0.9539 -0.2975
vn -0.1162 0.9692 -0.2170
vn -0.2493 0.9681 -0.0230
vn -0.2493 0.9681 0.0230
vn -0.1078 0.9519 0.2869
vn 0.0307 0.9596 0.2798
vn 0.0939 0.9476 0.3052
vn 0.0939 0.9476 -0.3053
vn -0.0282 -0.9555 -0.2938
vn 0.0001 -0.9553 -0.2956
vn 0.0001 -0.9553 0.2956
vn -0.0181 -0.9562 0.2922
vn -0.1627 -0.9629 0.2153
vn -0.2910 -0.9564 0.0229
vn -0.2910 -0.9564 -0.0229
vn -0.1574 -0.9451 -0.2863
vn 0.0000 0.0000 1.0000
vn -0.0002 0.0001 1.0000
vn -0.0773 0.0972 0.9923
vn -0.1175 0.0247 0.9928
vn 0.9611 0.2761 -0.0000
vn 0.9652 0.2613 -0.0000
vn 0.0000 0.0000 -1.0000
vn 0.0003 0.0002 -1.0000
vn 0.0628 0.1043 -0.9926
vn 0.1186 0.0305 -0.9925
vn -0.9756 0.2196 -0.0000
vn -0.9775 0.2110 -0.0000
vn 0.0446 0.9990 -0.0006
vn 0.0446 0.9990 0.0006
vn -0.0717 0.9506 0.3019
vn -0.0717 0.9506 -0.3019
vn 0.0000 -1.0000 0.0006
vn 0.0000 -1.0000 -0.0006
vn -0.0001 -0.9553 -0.2956
vn -0.0001 -0.9553 0.2956
vn -0.0002 -0.0001 -1.0000
vn -0.1175 -0.0248 0.9928
vn -0.0816 -0.0945 0.9922
vn 0.9774 -0.2113 -0.0000
vn 0.9758 -0.2185 -0.0000
vn 0.1175 -0.0248 -0.9928
vn 0.0819 -0.0942 -0.9922
vn -0.9774 -0.2113 -0.0000
vn -0.9758 -0.2185 -0.0000
vn 0.1187 0.0307 0.9925
vn 0.0637 0.1036 0.9926
vn -0.1176 0.0247 -0.9928
vn -0.0777 0.0968 -0.9923
vn -0.1250 0.0134 0.9921
vn -0.0001 -0.0001 1.0000
vn 0.9929 0.1190 -0.0000
vn 0.1252 0.0136 -0.9920
vn -0.9929 0.1190 -0.0000
vn 0.1175 -0.0248 0.9928
vn 0.1250 -0.0137 0.9921
vn -0.1175 -0.0248 -0.9928
vn -0.1248 -0.0136 -0.9921
vn -0.0001 0.0001 -1.0000
vn -0.0039 0.0000 1.0000
vn -0.1249 -0.0137 0.9921
vn 1.0000 -0.0007 -0.0000
vn 0.9928 -0.1200 -0.0000
vn 0.0001 0.0000 -1.0000
vn 0.0046 -0.0002 -1.0000
vn 0.1250 -0.0137 -0.9921
vn -1.0000 -0.0007 -0.0000
vn -0.9928 -0.1200 -0.0000
vn 0.0001 0.0000 1.0000
vn 0.0046 -0.0001 1.0000
vn 0.1251 0.0136 0.9920
vn -0.0040 -0.0002 -1.0000
vn -0.1251 0.0135 -0.9921
vn -0.0937 0.9080 0.4084
vn 0.0693 0.8132 0.5779
vn 0.2493 0.9681 0.0230
vn 0.3340 0.9133 0.2331
vn 0.3088 0.9214 -0.2361
vn 0.2493 0.9682 -0.0230
vn -0.0812 0.8045 -0.5883
vn -0.1066 0.9437 -0.3132
vn -0.0516 0.9677 -0.2468
vn 0.0877 0.9054 -0.4154
vn -0.3341 0.9133 -0.2331
vn -0.3088 0.9213 0.2361
vn -0.3737 -0.8990 0.2283
vn -0.3500 -0.9078 -0.2312
vn -0.1420 -0.9045 -0.4020
vn 0.0000 -0.8251 -0.5650
vn 0.2910 -0.9564 -0.0229
vn 0.3737 -0.8990 -0.2283
vn 0.3500 -0.9078 0.2312
vn 0.2910 -0.9564 0.0229
vn 0.0000 -0.8286 0.5598
vn 0.0000 -0.9562 0.2927
vn 0.0282 -0.9554 0.2938
vn 0.1420 -0.9045 0.4020
vn -0.0780 0.8096 0.5817
vn 0.0693 0.8132 -0.5779
vn 0.0000 -0.8251 0.5650
vn 0.0151 0.1577 0.9874
vn -0.0073 -0.1132 0.9936
vn -0.0715 0.0609 0.9956
vn 0.0069 0.0808 0.9967
vn 0.9811 0.1935 -0.0000
vn -0.0080 0.0799 -0.9968
vn -0.0178 0.1576 -0.9873
vn 0.0113 -0.1080 -0.9941
vn 0.0683 0.0658 -0.9955
vn -0.9811 0.1935 -0.0000
vn -0.9816 -0.1907 -0.0000
vn -0.0003 -0.1602 -0.9871
vn 0.0000 0.1152 -0.9933
vn -0.0756 -0.0649 -0.9950
vn -0.0004 -0.0804 -0.9968
vn 0.9816 -0.1907 -0.0000
vn 0.0005 -0.0810 0.9967
vn 0.0000 -0.1623 0.9867
vn 0.0016 0.1129 0.9936
vn 0.0761 -0.0648 0.9950
vn -0.0121 0.1588 0.9872
vn 0.0151 0.3207 0.9471
vn 0.0066 0.1542 0.9880
vn -0.0067 0.0770 0.9970
vn 0.0151 0.1577 -0.9874
vn 0.0151 0.3207 -0.9471
vn 0.0066 0.1542 -0.9880
vn 0.0072 0.0809 -0.9967
vn 0.0000 -0.1604 -0.9871
vn 0.0000 -0.3208 -0.9471
vn 0.0000 -0.1624 -0.9867
vn 0.0000 -0.0803 -0.9968
vn -0.0003 -0.1602 0.9871
vn 0.0000 -0.3208 0.9471
vn 0.0000 -0.1624 0.9867
vn -0.0002 -0.0805 0.9968
vn 0.4374 0.3847 0.8128
vn -0.4374 0.3847 -0.8128
vn 0.1002 0.9538 -0.2834
vn -0.4489 -0.3822 0.8077
vn 0.1574 -0.9451 0.2863
vn 0.4489 -0.3822 -0.8077
vn -0.4374 0.3847 0.8128
vn 0.0802 0.8729 0.4812
vn 0.1162 0.9692 0.2170
vn -0.0531 0.9507 0.3055
vn -0.0862 0.8759 -0.4748
vn 0.4374 0.3847 -0.8128
vn -0.1333 -0.8736 0.4681
vn 0.4489 -0.3822 0.8077
vn -0.4489 -0.3822 -0.8077
vn 0.1333 -0.8736 -0.4681
vn 0.1627 -0.9629 -0.2153
vn 0.0181 -0.9562 -0.2922
vn -0.2280 0.0505 0.9724
vn -0.2390 0.0309 0.9705
vn -0.2390 -0.0310 0.9705
vn -0.2279 -0.0505 0.9724
vn -0.0759 -0.0650 0.9950
vn 0.0000 -0.0803 0.9968
vn 0.0813 -0.0949 0.9922
vn 0.2280 -0.0505 0.9724
vn 0.2390 -0.0310 0.9705
vn 0.2390 0.0309 0.9705
vn 0.2211 0.0629 0.9732
vn 0.0688 0.0658 0.9955
vn -0.0085 0.0802 0.9967
vn -0.0813 -0.0949 -0.9922
vn -0.2280 -0.0505 -0.9724
vn -0.2390 -0.0310 -0.9705
vn -0.2390 0.0309 -0.9705
vn -0.2279 0.0505 -0.9724
vn -0.0718 0.0610 -0.9956
vn -0.0067 0.0770 -0.9970
vn 0.2215 0.0627 -0.9731
vn 0.2390 0.0309 -0.9705
vn 0.2390 -0.0310 -0.9705
vn 0.2279 -0.0505 -0.9724
vn 0.0766 -0.0649 -0.9949
vn 0.0000 -0.0814 -0.9967
vn 0.0000 1.0000 0.0018
vn 0.0148 0.9999 0.0018
vn 0.0000 -1.0000 -0.0000
vn 0.1045 -0.9945 -0.0000
vn 0.1044 -0.9945 -0.0000
vn 0.0000 -0.0006 1.0000
vn 0.0000 -0.1637 0.9865
vn 0.1784 -0.1560 0.9715
vn 0.2219 0.1934 0.9557
vn 0.0000 0.1528 0.9883
vn -0.2221 0.1943 -0.9555
vn 0.0000 0.1540 -0.9881
vn -0.0010 -0.0005 -1.0000
vn -0.0002 -0.1637 -0.9865
vn -0.1783 -0.1553 -0.9716
vn 0.1599 0.1598 -0.9741
vn 0.2440 -0.1892 -0.9511
vn -0.0148 0.9999 0.0018
vn -0.1043 -0.9945 -0.0000
vn -0.1044 -0.9945 -0.0000
vn -0.1597 0.1589 0.9743
vn -0.2438 -0.1897 0.9511
vn 0.9936 0.1092 -0.0286
vn 0.9936 0.1095 0.0291
vn 0.9997 0.0218 0.0066
vn 0.9997 0.0215 -0.0066
vn 0.9939 -0.1101 -0.0000
vn 0.9940 -0.1097 -0.0000
vn 1.0000 0.0006 -0.0000
vn 1.0000 0.0002 -0.0000
vn 0.9383 -0.0007 0.3458
vn 0.9852 -0.0038 0.1716
vn 1.0000 -0.0006 -0.0010
vn 0.9984 -0.0015 0.0566
vn -0.9760 0.0061 -0.2175
vn -0.9850 -0.0035 -0.1726
vn -1.0000 -0.0003 -0.0002
vn -0.9986 0.0001 -0.0532
vn 0.9851 -0.0034 -0.1720
vn 0.9385 -0.0002 -0.3451
vn 0.9986 -0.0002 -0.0529
vn 1.0000 -0.0010 0.0029
vn -0.9910 0.1342 0.0001
vn -0.9997 0.0247 -0.0001
vn -0.9997 0.0249 -0.0001
vn -0.9939 -0.1104 -0.0000
vn -0.9939 -0.1101 -0.0000
vn -1.0000 0.0002 -0.0000
vn -1.0000 0.0000 -0.0000
vn -0.9851 -0.0039 0.1719
vn -0.9758 0.0056 0.2185
vn -0.9986 0.0004 0.0520
vn -1.0000 -0.0014 -0.0029
vn 0.2235 0.9747 0.0017
vn 0.2237 0.9747 0.0017
vn 0.3023 -0.9532 -0.0000
vn 0.3020 -0.9533 -0.0000
vn 0.3299 -0.0373 0.9433
vn 0.3101 0.0668 0.9483
vn -0.3298 -0.0366 -0.9433
vn -0.3102 0.0675 -0.9483
vn 0.3202 0.0391 -0.9466
vn 0.3213 -0.0623 -0.9449
vn -0.2235 0.9747 0.0017
vn -0.3020 -0.9533 -0.0000
vn -0.3019 -0.9533 -0.0000
vn -0.3201 0.0385 0.9466
vn -0.3214 -0.0631 0.9448
vn 0.9855 0.1598 0.0570
vn 0.9855 0.1601 -0.0566
vn 0.9858 -0.1682 -0.0000
vn 0.9857 -0.1686 -0.0000
vn 0.9658 -0.0344 0.2569
vn 0.9215 -0.0006 0.3883
vn -0.9656 -0.0341 -0.2577
vn -0.9551 0.0388 -0.2937
vn 0.9219 -0.0002 -0.3874
vn 0.9658 -0.0339 -0.2571
vn -0.9812 0.1929 0.0002
vn -0.9812 0.1931 0.0002
vn -0.9857 -0.1686 -0.0000
vn -0.9856 -0.1688 -0.0000
vn -0.9544 0.0381 0.2961
vn -0.9658 -0.0344 0.2571
vn 0.0000 -0.3221 -0.9467
vn -0.0778 -0.3199 -0.9443
vn -0.0661 0.2863 -0.9559
vn 0.0000 0.3216 -0.9469
vn 0.9879 0.0538 0.1454
vn 0.9994 0.0097 0.0327
vn 0.9994 0.0097 -0.0318
vn 0.9881 0.0538 -0.1442
vn 0.9969 -0.0640 -0.0449
vn 0.9921 -0.0424 -0.1180
vn 1.0000 -0.0004 0.0019
vn 1.0000 0.0002 0.0008
vn 1.0000 -0.0002 -0.0008
vn 1.0000 -0.0008 -0.0018
vn 0.9921 -0.0428 0.1179
vn 0.9969 -0.0643 0.0449
vn -0.9920 -0.0426 -0.1185
vn -1.0000 -0.0006 0.0010
vn -0.9994 0.0099 -0.0322
vn -0.9880 0.0540 -0.1450
vn -0.9997 0.0182 0.0141
vn -0.9994 0.0097 0.0325
vn -0.9880 0.0537 0.1448
vn -0.9948 0.0828 0.0595
vn -0.9969 -0.0643 0.0448
vn -0.9921 -0.0428 0.1179
vn -1.0000 -0.0007 -0.0019
vn -1.0000 -0.0002 -0.0009
vn -0.9831 0.1127 -0.1445
vn 0.9872 -0.0981 -0.1259
vn -0.9871 -0.0985 0.1259
vn 0.9966 0.0122 0.0817
vn 0.9830 0.1126 0.1449
vn 0.9588 0.0438 0.2807
vn -0.0517 0.3210 0.9457
vn -0.2609 0.2682 0.9274
vn 0.9829 0.1130 -0.1451
vn 0.0777 -0.3204 0.9441
vn 0.2923 -0.2654 0.9188
vn -0.9969 -0.0643 -0.0451
vn -0.9871 -0.0984 -0.1263
vn -0.9894 -0.1190 -0.0836
vn -0.0368 0.1561 -0.9871
vn 0.0579 -0.1558 -0.9861
vn 0.0900 -0.2877 -0.9535
vn -0.0580 -0.1565 0.9860
vn -0.0899 -0.2883 0.9533
vn 0.0367 0.1554 0.9872
vn 0.0661 0.2854 0.9561
vn -0.9829 0.1130 0.1457
vn 0.5940 0.6587 -0.4619
vn 0.9871 -0.0985 0.1259
vn -0.6369 -0.6307 -0.4433
vn 0.0000 0.3203 0.9473
vn 0.0517 0.3219 -0.9454
vn 0.0000 -0.3218 0.9468
vn 0.9991 0.0052 0.0424
vn 0.9991 0.0052 -0.0415
vn 0.9966 0.0123 -0.0811
vn -1.0000 -0.0003 0.0005
vn -0.9997 0.0182 -0.0141
vn -0.9948 0.0829 -0.0597
vn -0.9860 0.1361 -0.0964
vn 0.9894 -0.1186 -0.0833
vn -0.9894 -0.1190 0.0833
vn -0.5933 0.6580 0.4637
vn 0.9584 0.0440 -0.2819
vn 0.6368 -0.6309 0.4432
vn -0.5939 0.6588 -0.4618
vn 0.6371 -0.6305 -0.4434
vn -0.6368 -0.6309 0.4432
vn 0.5933 0.6580 0.4637
vn -0.9858 0.1370 0.0967
vn 0.2612 0.2689 -0.9271
vn 0.9894 -0.1190 0.0833
vn -0.2923 -0.2648 -0.9189
vn -0.0073 -0.1132 -0.9936
vn 0.0000 0.1152 0.9933
vn -0.1067 0.9437 0.3132
vn 0.0000 -0.9562 -0.2927
vn 0.0003 -0.0002 1.0000
vn -0.0780 0.8096 -0.5818
vn -0.0812 0.8046 0.5883
vn 0.0000 -0.8286 -0.5598
vn -0.0121 0.1588 -0.9872
vn 0.0000 -0.1604 0.9871
vn -0.0178 0.1576 0.9873
vn 0.0000 -0.1623 -0.9867
vn 0.0113 -0.1080 0.9941
vn 0.0016 0.1129 -0.9936
# 354 vertex normals

vt 0.0161 0.5801 0.0000
vt 0.0157 0.5800 0.0000
vt 0.0155 0.5795 0.0000
vt 0.0155 0.1896 0.0000
vt 0.0157 0.1892 0.0000
vt 0.0161 0.1890 0.0000
vt 0.2184 0.1890 0.0000
vt 0.2184 0.5801 0.0000
vt 0.0183 0.5984 0.0000
vt 0.2205 0.5984 0.0000
vt 0.2205 0.9894 0.0000
vt 0.0183 0.9894 0.0000
vt 0.0178 0.9893 0.0000
vt 0.0177 0.9889 0.0000
vt 0.0177 0.5989 0.0000
vt 0.0178 0.5985 0.0000
vt 0.1755 0.1519 0.0000
vt 0.1783 0.1699 0.0000
vt 0.0167 0.1778 0.0000
vt 0.0111 0.1662 0.0000
vt 0.9979 0.0935 0.0000
vt 0.6855 0.0935 0.0000
vt 0.6855 0.0817 0.0000
vt 0.9979 0.0817 0.0000
vt 0.0939 0.0738 0.0000
vt 0.0981 0.0904 0.0000
vt 0.0173 0.0944 0.0000
vt 0.0117 0.0828 0.0000
vt 0.9907 0.1803 0.0000
vt 0.6784 0.1803 0.0000
vt 0.6783 0.1685 0.0000
vt 0.9907 0.1685 0.0000
vt 0.4206 0.5802 0.0000
vt 0.4206 0.1889 0.0000
vt 0.6229 0.1890 0.0000
vt 0.6229 0.5801 0.0000
vt 0.4228 0.9896 0.0000
vt 0.4228 0.5982 0.0000
vt 0.6250 0.5984 0.0000
vt 0.6250 0.9894 0.0000
vt 0.3399 0.1375 0.0000
vt 0.3399 0.1060 0.0000
vt 0.5016 0.1059 0.0000
vt 0.5043 0.1275 0.0000
vt 0.3405 0.0470 0.0000
vt 0.3405 0.0225 0.0000
vt 0.5021 0.0225 0.0000
vt 0.5049 0.0405 0.0000
vt 0.1755 0.1275 0.0000
vt 0.0112 0.1174 0.0000
vt 0.0167 0.1059 0.0000
vt 0.1783 0.1059 0.0000
vt 0.9979 0.0327 0.0000
vt 0.6855 0.0327 0.0000
vt 0.6855 0.0210 0.0000
vt 0.9979 0.0210 0.0000
vt 0.0939 0.0373 0.0000
vt 0.0117 0.0340 0.0000
vt 0.0173 0.0225 0.0000
vt 0.0981 0.0225 0.0000
vt 0.9907 0.1195 0.0000
vt 0.6783 0.1195 0.0000
vt 0.6784 0.1078 0.0000
vt 0.9907 0.1078 0.0000
vt 0.5866 0.1590 0.0000
vt 0.6688 0.1662 0.0000
vt 0.6632 0.1778 0.0000
vt 0.5824 0.1739 0.0000
vt 0.5049 0.0649 0.0000
vt 0.6694 0.0828 0.0000
vt 0.6638 0.0944 0.0000
vt 0.5021 0.0865 0.0000
vt 0.0067 0.1540 0.0000
vt 0.1733 0.1458 0.0000
vt 0.6855 0.0695 0.0000
vt 0.9979 0.0695 0.0000
vt 0.0906 0.0647 0.0000
vt 0.0073 0.0706 0.0000
vt 0.6783 0.1563 0.0000
vt 0.9907 0.1563 0.0000
vt 0.5899 0.1316 0.0000
vt 0.5865 0.1224 0.0000
vt 0.6687 0.1174 0.0000
vt 0.6732 0.1296 0.0000
vt 0.6693 0.0340 0.0000
vt 0.6737 0.0462 0.0000
vt 0.5071 0.0466 0.0000
vt 0.0050 0.1418 0.0000
vt 0.1726 0.1397 0.0000
vt 0.0067 0.1296 0.0000
vt 0.1733 0.1336 0.0000
vt 0.6855 0.0572 0.0000
vt 0.9979 0.0572 0.0000
vt 0.6855 0.0449 0.0000
vt 0.9979 0.0449 0.0000
vt 0.0895 0.0556 0.0000
vt 0.0055 0.0584 0.0000
vt 0.0073 0.0462 0.0000
vt 0.0906 0.0464 0.0000
vt 0.6783 0.1441 0.0000
vt 0.9907 0.1441 0.0000
vt 0.6783 0.1318 0.0000
vt 0.9907 0.1318 0.0000
vt 0.5910 0.1408 0.0000
vt 0.6749 0.1418 0.0000
vt 0.6732 0.1540 0.0000
vt 0.5899 0.1499 0.0000
vt 0.6755 0.0584 0.0000
vt 0.5079 0.0527 0.0000
vt 0.6738 0.0706 0.0000
vt 0.5071 0.0588 0.0000
vt 0.0157 0.1887 0.0000
vt 0.2182 0.1887 0.0000
vt 0.8257 0.1896 0.0000
vt 0.8260 0.1890 0.0000
vt 0.8260 0.5801 0.0000
vt 0.8257 0.5795 0.0000
vt 0.7243 0.5804 0.0000
vt 0.7240 0.5801 0.0000
vt 0.8251 0.5801 0.0000
vt 0.8255 0.5804 0.0000
vt 0.0152 0.5801 0.0000
vt 0.0152 0.1890 0.0000
vt 0.0174 0.9894 0.0000
vt 0.0174 0.5984 0.0000
vt 0.0179 0.5981 0.0000
vt 0.2203 0.5981 0.0000
vt 0.8279 0.5989 0.0000
vt 0.8282 0.5984 0.0000
vt 0.8282 0.9894 0.0000
vt 0.8279 0.9889 0.0000
vt 0.7264 0.9897 0.0000
vt 0.7261 0.9894 0.0000
vt 0.8273 0.9894 0.0000
vt 0.8277 0.9897 0.0000
vt 0.6231 0.1887 0.0000
vt 0.2182 0.5804 0.0000
vt 0.6252 0.5981 0.0000
vt 0.2203 0.9897 0.0000
vt 0.1783 0.1705 0.0000
vt 0.0168 0.1783 0.0000
vt 0.0164 0.1781 0.0000
vt 0.1782 0.1702 0.0000
vt 0.6858 0.0937 0.0000
vt 0.9976 0.0937 0.0000
vt 0.0979 0.0908 0.0000
vt 0.0981 0.0910 0.0000
vt 0.0173 0.0949 0.0000
vt 0.0169 0.0947 0.0000
vt 0.6786 0.1806 0.0000
vt 0.9905 0.1806 0.0000
vt 0.9905 0.1076 0.0000
vt 0.6786 0.1076 0.0000
vt 0.5021 0.0220 0.0000
vt 0.6637 0.0220 0.0000
vt 0.6641 0.0222 0.0000
vt 0.5022 0.0222 0.0000
vt 0.9976 0.0208 0.0000
vt 0.6858 0.0208 0.0000
vt 0.5825 0.1056 0.0000
vt 0.5823 0.1054 0.0000
vt 0.6631 0.1054 0.0000
vt 0.6635 0.1056 0.0000
vt 0.5015 0.1705 0.0000
vt 0.3399 0.1626 0.0000
vt 0.3399 0.1623 0.0000
vt 0.5017 0.1702 0.0000
vt 0.5021 0.0870 0.0000
vt 0.3405 0.0792 0.0000
vt 0.3405 0.0789 0.0000
vt 0.5022 0.0868 0.0000
vt 0.1789 0.0220 0.0000
vt 0.3405 0.0220 0.0000
vt 0.3405 0.0222 0.0000
vt 0.1788 0.0222 0.0000
vt 0.1783 0.1054 0.0000
vt 0.3399 0.1054 0.0000
vt 0.3399 0.1057 0.0000
vt 0.1782 0.1056 0.0000
vt 0.6635 0.1784 0.0000
vt 0.6631 0.1783 0.0000
vt 0.6635 0.1781 0.0000
vt 0.6640 0.0949 0.0000
vt 0.6637 0.0949 0.0000
vt 0.6641 0.0947 0.0000
vt 0.8256 0.5800 0.0000
vt 0.0164 0.1054 0.0000
vt 0.0168 0.1054 0.0000
vt 0.0164 0.1056 0.0000
vt 0.8277 0.9893 0.0000
vt 0.0170 0.0220 0.0000
vt 0.0173 0.0220 0.0000
vt 0.0169 0.0222 0.0000
vt 0.0164 0.1784 0.0000
vt 0.8255 0.1887 0.0000
vt 0.8256 0.1892 0.0000
vt 0.8251 0.1890 0.0000
vt 0.0157 0.5804 0.0000
vt 0.0170 0.0949 0.0000
vt 0.0179 0.9897 0.0000
vt 0.6635 0.1054 0.0000
vt 0.6640 0.0220 0.0000
vt 0.8277 0.5981 0.0000
vt 0.8277 0.5985 0.0000
vt 0.8273 0.5984 0.0000
vt 0.0107 0.1663 0.0000
vt 0.0063 0.1541 0.0000
vt 0.0063 0.1296 0.0000
vt 0.0107 0.1173 0.0000
vt 0.5017 0.1056 0.0000
vt 0.6632 0.1059 0.0000
vt 0.6691 0.1173 0.0000
vt 0.6736 0.1296 0.0000
vt 0.6736 0.1541 0.0000
vt 0.6692 0.1663 0.0000
vt 0.5825 0.1742 0.0000
vt 0.3399 0.1620 0.0000
vt 0.6638 0.0225 0.0000
vt 0.6697 0.0339 0.0000
vt 0.6742 0.0462 0.0000
vt 0.6742 0.0707 0.0000
vt 0.6698 0.0829 0.0000
vt 0.3405 0.0786 0.0000
vt 0.1788 0.0868 0.0000
vt 0.1789 0.0865 0.0000
vt 0.0112 0.0829 0.0000
vt 0.0068 0.0707 0.0000
vt 0.0069 0.0462 0.0000
vt 0.0113 0.0339 0.0000
vt 0.0979 0.0222 0.0000
vt 0.8928 0.9869 0.0000
vt 0.8395 0.9869 0.0000
vt 0.8395 0.6730 0.0000
vt 0.8928 0.6730 0.0000
vt 0.8928 0.6634 0.0000
vt 0.8395 0.6634 0.0000
vt 0.8395 0.3496 0.0000
vt 0.8928 0.3496 0.0000
vt 0.8986 0.2379 0.0000
vt 0.8986 0.2038 0.0000
vt 0.9519 0.2038 0.0000
vt 0.9520 0.2667 0.0000
vt 0.8986 0.2641 0.0000
vt 0.9497 0.3387 0.0000
vt 0.8964 0.3362 0.0000
vt 0.8964 0.3021 0.0000
vt 0.8964 0.2756 0.0000
vt 0.9497 0.2756 0.0000
vt 0.8431 0.3387 0.0000
vt 0.8431 0.2756 0.0000
vt 0.9462 0.9869 0.0000
vt 0.9461 0.6730 0.0000
vt 0.9461 0.6634 0.0000
vt 0.9461 0.3496 0.0000
vt 0.8453 0.2667 0.0000
vt 0.8453 0.2038 0.0000
vt 0.9526 0.9885 0.0000
vt 0.9529 0.6758 0.0000
vt 0.9550 0.6779 0.0000
vt 0.9548 0.9864 0.0000
vt 0.9753 0.6759 0.0000
vt 0.9753 0.9885 0.0000
vt 0.9732 0.9864 0.0000
vt 0.9732 0.6780 0.0000
vt 0.9761 0.3174 0.0000
vt 0.9760 0.3793 0.0000
vt 0.9739 0.3772 0.0000
vt 0.9740 0.3196 0.0000
vt 0.9761 0.3878 0.0000
vt 0.9761 0.4500 0.0000
vt 0.9739 0.4478 0.0000
vt 0.9740 0.3899 0.0000
vt 0.9807 0.5942 0.0000
vt 0.9807 0.5320 0.0000
vt 0.9828 0.5342 0.0000
vt 0.9828 0.5921 0.0000
vt 0.9831 0.9885 0.0000
vt 0.9828 0.6758 0.0000
vt 0.9849 0.6779 0.0000
vt 0.9852 0.9864 0.0000
vt 0.9635 0.6758 0.0000
vt 0.9635 0.9884 0.0000
vt 0.9614 0.9863 0.0000
vt 0.9614 0.6779 0.0000
vt 0.9808 0.6649 0.0000
vt 0.9807 0.6030 0.0000
vt 0.9828 0.6051 0.0000
vt 0.9829 0.6627 0.0000
vt 0.8392 0.9866 0.0000
vt 0.8392 0.6733 0.0000
vt 0.8392 0.6631 0.0000
vt 0.8392 0.3499 0.0000
vt 0.9522 0.2039 0.0000
vt 0.9522 0.2665 0.0000
vt 0.9500 0.2758 0.0000
vt 0.9500 0.3386 0.0000
vt 0.8428 0.3386 0.0000
vt 0.8428 0.2758 0.0000
vt 0.9464 0.6733 0.0000
vt 0.9464 0.9866 0.0000
vt 0.9464 0.3499 0.0000
vt 0.9464 0.6631 0.0000
vt 0.8450 0.2665 0.0000
vt 0.8451 0.2039 0.0000
vt 0.9526 0.6755 0.0000
vt 0.9523 0.9888 0.0000
vt 0.9756 0.9888 0.0000
vt 0.9756 0.6755 0.0000
vt 0.9762 0.3797 0.0000
vt 0.9763 0.3171 0.0000
vt 0.9763 0.4503 0.0000
vt 0.9763 0.3874 0.0000
vt 0.9804 0.5317 0.0000
vt 0.9804 0.5946 0.0000
vt 0.9825 0.6755 0.0000
vt 0.9828 0.9888 0.0000
vt 0.9637 0.9887 0.0000
vt 0.9637 0.6755 0.0000
vt 0.9804 0.6026 0.0000
vt 0.9805 0.6652 0.0000
vt 0.8964 0.2753 0.0000
vt 0.9497 0.2753 0.0000
vt 0.9497 0.3390 0.0000
vt 0.8964 0.3364 0.0000
vt 0.9530 0.6754 0.0000
vt 0.9551 0.6775 0.0000
vt 0.9549 0.9868 0.0000
vt 0.9527 0.9889 0.0000
vt 0.9812 0.5947 0.0000
vt 0.9808 0.5946 0.0000
vt 0.9829 0.5925 0.0000
vt 0.9833 0.5926 0.0000
vt 0.9734 0.3777 0.0000
vt 0.9737 0.3776 0.0000
vt 0.9759 0.3797 0.0000
vt 0.9755 0.3798 0.0000
vt 0.9759 0.4503 0.0000
vt 0.9738 0.4482 0.0000
vt 0.9739 0.3896 0.0000
vt 0.9759 0.3874 0.0000
vt 0.9833 0.6046 0.0000
vt 0.9829 0.6047 0.0000
vt 0.9808 0.6026 0.0000
vt 0.9812 0.6025 0.0000
vt 0.9813 0.6654 0.0000
vt 0.9809 0.6652 0.0000
vt 0.9830 0.6631 0.0000
vt 0.9834 0.6632 0.0000
vt 0.9762 0.3871 0.0000
vt 0.9805 0.5949 0.0000
vt 0.9806 0.6655 0.0000
vt 0.9534 0.6753 0.0000
vt 0.9527 0.6751 0.0000
vt 0.9530 0.6750 0.0000
vt 0.8453 0.2669 0.0000
vt 0.8450 0.2668 0.0000
vt 0.9525 0.9891 0.0000
vt 0.9519 0.2035 0.0000
vt 0.9522 0.2036 0.0000
vt 0.9756 0.4505 0.0000
vt 0.9762 0.4506 0.0000
vt 0.9759 0.4507 0.0000
vt 0.9500 0.3389 0.0000
vt 0.8428 0.2754 0.0000
vt 0.8431 0.2753 0.0000
vt 0.8451 0.2036 0.0000
vt 0.8453 0.2035 0.0000
vt 0.9522 0.2668 0.0000
vt 0.9520 0.2669 0.0000
vt 0.9805 0.6023 0.0000
vt 0.8392 0.6730 0.0000
vt 0.9761 0.3800 0.0000
vt 0.9464 0.6634 0.0000
vt 0.8986 0.2643 0.0000
vt 0.8431 0.3390 0.0000
vt 0.8986 0.2035 0.0000
vt 0.9555 0.6774 0.0000
vt 0.9553 0.9869 0.0000
vt 0.9531 0.9890 0.0000
vt 0.9734 0.4483 0.0000
vt 0.9735 0.3894 0.0000
vt 0.9756 0.3873 0.0000
vt 0.9759 0.3870 0.0000
vt 0.9808 0.5950 0.0000
vt 0.9809 0.6656 0.0000
vt 0.9464 0.9869 0.0000
vt 0.9528 0.9892 0.0000
vt 0.8392 0.3495 0.0000
vt 0.9464 0.6730 0.0000
vt 0.8392 0.6634 0.0000
vt 0.9464 0.3495 0.0000
vt 0.8392 0.9869 0.0000
vt 0.9808 0.6022 0.0000
vt 0.8428 0.3389 0.0000
vt 0.9758 0.3801 0.0000
vt 0.9500 0.2754 0.0000
vt 0.1761 0.0649 0.0000
vt 0.7240 0.1890 0.0000
vt 0.7261 0.5984 0.0000
vt 0.5824 0.1059 0.0000
vt 0.1761 0.0405 0.0000
vt 0.1789 0.0225 0.0000
vt 0.5044 0.1519 0.0000
vt 0.5016 0.1699 0.0000
vt 0.1739 0.0588 0.0000
vt 0.5065 0.1336 0.0000
vt 0.1732 0.0527 0.0000
vt 0.1739 0.0466 0.0000
vt 0.5073 0.1397 0.0000
vt 0.5066 0.1458 0.0000
vt 0.6231 0.5804 0.0000
vt 0.6252 0.9897 0.0000
vt 0.7243 0.1887 0.0000
vt 0.7264 0.5981 0.0000
vt 0.1789 0.0870 0.0000
vt 0.5015 0.1054 0.0000
vt 0.5823 0.1744 0.0000
vt 0.0981 0.0220 0.0000
# 418 texture coords

g TastyPY
usemtl Material__27
s 1
f 1/1/1 2/2/2 3/3/3 
f 3/3/3 4/4/4 5/5/5 
f 1/1/1 3/3/3 5/5/5 
f 5/5/5 6/6/6 7/7/7 
f 1/1/1 5/5/5 7/7/7 
f 1/1/1 7/7/7 8/8/8 
f 9/9/9 10/10/10 11/11/11 
f 11/11/11 12/12/12 13/13/13 
f 9/9/9 11/11/11 13/13/13 
f 13/13/13 14/14/14 15/15/15 
f 9/9/9 13/13/13 15/15/15 
f 9/9/9 15/15/15 16/16/16 
f 17/17/17 18/18/18 19/19/19 
f 19/19/19 20/20/20 17/17/17 
f 21/21/21 22/22/21 23/23/22 
f 23/23/22 24/24/22 21/21/21 
f 25/25/23 26/26/24 27/27/25 
f 27/27/25 28/28/26 25/25/23 
f 29/29/27 30/30/27 31/31/28 
f 31/31/28 32/32/28 29/29/27 
f 33/33/29 34/34/30 35/35/31 
f 35/35/31 36/36/32 33/33/29 
f 37/37/33 38/38/34 39/39/35 
f 39/39/35 40/40/36 37/37/33 
f 41/41/17 42/42/17 43/43/17 
f 43/43/17 44/44/17 41/41/17 
f 45/45/23 46/46/23 47/47/37 
f 47/47/37 48/48/23 45/45/23 
f 49/49/17 50/50/38 51/51/39 
f 51/51/39 52/52/17 49/49/17 
f 53/53/40 54/54/40 55/55/41 
f 55/55/41 56/56/41 53/53/40 
f 57/57/23 58/58/42 59/59/43 
f 59/59/43 60/60/23 57/57/23 
f 61/61/44 62/62/44 63/63/45 
f 63/63/45 64/64/45 61/61/44 
f 65/65/17 66/66/46 67/67/47 
f 67/67/47 68/68/17 65/65/17 
f 69/69/23 70/70/48 71/71/49 
f 71/71/49 72/72/23 69/69/23 
f 17/17/17 20/20/20 73/73/50 
f 73/73/50 74/74/51 17/17/17 
f 23/23/22 75/75/52 76/76/52 
f 76/76/52 24/24/22 23/23/22 
f 77/77/23 25/25/23 28/28/26 
f 28/28/26 78/78/53 77/77/23 
f 31/31/28 79/79/54 80/80/54 
f 80/80/54 32/32/28 31/31/28 
f 81/81/17 82/82/17 83/83/55 
f 83/83/55 84/84/56 81/81/17 
f 48/48/23 85/85/57 86/86/58 
f 86/86/58 87/87/59 48/48/23 
f 74/74/51 73/73/50 88/88/60 
f 88/88/60 89/89/18 74/74/51 
f 89/89/18 88/88/60 90/90/61 
f 90/90/61 91/91/17 89/89/18 
f 49/49/17 91/91/17 90/90/61 
f 90/90/61 50/50/38 49/49/17 
f 75/75/52 92/92/62 93/93/62 
f 93/93/62 76/76/52 75/75/52 
f 92/92/62 94/94/63 95/95/63 
f 95/95/63 93/93/62 92/92/62 
f 94/94/63 54/54/40 53/53/40 
f 53/53/40 95/95/63 94/94/63 
f 96/96/64 77/77/23 78/78/53 
f 78/78/53 93/97/65 96/96/64 
f 96/96/64 93/97/65 97/98/66 
f 97/98/66 98/99/23 96/96/64 
f 98/99/23 97/98/66 58/58/42 
f 58/58/42 57/57/23 98/99/23 
f 79/79/54 99/100/67 88/101/67 
f 88/101/67 80/80/54 79/79/54 
f 99/100/67 100/102/68 101/103/68 
f 101/103/68 88/101/67 99/100/67 
f 100/102/68 62/62/44 61/61/44 
f 61/61/44 101/103/68 100/102/68 
f 102/104/69 81/81/17 84/84/56 
f 84/84/56 92/105/70 102/104/69 
f 102/104/69 92/105/70 103/106/71 
f 103/106/71 104/107/17 102/104/69 
f 104/107/17 103/106/71 66/66/46 
f 66/66/46 65/65/17 104/107/17 
f 87/87/59 86/86/58 99/108/72 
f 99/108/72 105/109/37 87/87/59 
f 105/109/37 99/108/72 106/110/73 
f 106/110/73 107/111/23 105/109/37 
f 69/69/23 107/111/23 106/110/73 
f 106/110/73 70/70/48 69/69/23 
f 7/7/7 6/6/6 108/112/74 
f 108/112/74 109/113/75 7/7/7 
f 110/114/76 111/115/77 112/116/78 
f 112/116/78 113/117/79 110/114/76 
f 114/118/80 115/119/81 116/120/82 
f 116/120/82 117/121/83 114/118/80 
f 3/3/3 118/122/84 119/123/85 
f 119/123/85 4/4/4 3/3/3 
f 14/14/14 120/124/86 121/125/87 
f 121/125/87 15/15/15 14/14/14 
f 10/10/10 9/9/9 122/126/88 
f 122/126/88 123/127/89 10/10/10 
f 124/128/90 125/129/91 126/130/92 
f 126/130/92 127/131/93 124/128/90 
f 128/132/94 129/133/95 130/134/96 
f 130/134/96 131/135/97 128/132/94 
f 132/136/98 35/35/31 34/34/30 
f 133/137/99 8/8/8 33/33/29 
f 134/138/89 39/39/35 38/38/34 
f 135/139/100 11/11/11 37/37/33 
f 109/140/101 108/141/102 29/142/103 
f 29/142/103 136/143/104 109/140/101 
f 111/144/105 22/22/21 21/21/21 
f 21/21/21 112/145/105 111/144/105 
f 137/146/106 114/147/107 117/148/108 
f 117/148/108 21/149/109 137/146/106 
f 118/150/110 30/30/27 29/29/27 
f 29/29/27 119/151/110 118/150/110 
f 120/152/111 64/64/45 63/63/45 
f 63/63/45 121/153/111 120/152/111 
f 123/154/112 122/155/113 63/156/114 
f 63/156/114 138/157/115 123/154/112 
f 125/158/116 56/56/41 55/55/41 
f 55/55/41 126/159/116 125/158/116 
f 139/160/117 128/161/118 131/162/119 
f 131/162/119 55/163/120 139/160/117 
f 132/164/121 34/165/122 140/166/123 
f 140/166/123 141/167/124 132/164/121 
f 133/168/125 33/169/126 142/170/127 
f 142/170/127 143/171/128 133/168/125 
f 134/172/129 38/173/130 144/174/131 
f 144/174/131 145/175/132 134/172/129 
f 135/176/133 37/177/134 146/178/135 
f 146/178/135 147/179/136 135/176/133 
f 6/6/6 5/5/5 119/123/85 
f 119/123/85 108/112/74 6/6/6 
f 111/180/137 148/181/137 22/182/137 
f 118/183/138 149/184/138 30/185/138 
f 116/120/82 150/186/139 112/116/78 
f 112/116/78 117/121/83 116/120/82 
f 120/187/140 151/188/140 64/189/140 
f 130/134/96 152/190/141 126/130/92 
f 126/130/92 131/135/97 130/134/96 
f 9/9/9 16/16/16 121/125/87 
f 121/125/87 122/126/88 9/9/9 
f 125/191/142 153/192/142 56/193/142 
f 29/142/143 108/141/143 119/194/143 
f 148/195/144 111/115/77 154/196/145 
f 154/196/145 155/197/146 148/195/144 
f 149/198/147 118/122/84 2/2/2 
f 2/2/2 1/1/1 149/198/147 
f 21/149/148 117/148/148 112/199/148 
f 151/200/149 120/124/86 13/13/13 
f 13/13/13 12/12/12 151/200/149 
f 55/163/150 131/162/150 126/201/150 
f 63/156/151 122/155/151 121/202/151 
f 153/203/152 125/129/91 156/204/153 
f 156/204/153 157/205/154 153/203/152 
f 119/123/85 5/5/5 4/4/4 
f 112/116/78 150/186/139 113/117/79 
f 126/130/92 152/190/141 127/131/93 
f 121/125/87 16/16/16 15/15/15 
f 110/114/76 154/196/145 111/115/77 
f 3/3/3 2/2/2 118/122/84 
f 14/14/14 13/13/13 120/124/86 
f 124/128/90 156/204/153 125/129/91 
f 20/20/20 19/19/19 29/142/103 
f 29/142/103 32/206/155 20/20/20 
f 73/73/50 20/20/20 32/206/155 
f 32/206/155 80/207/156 73/73/50 
f 80/207/156 88/88/60 73/73/50 
f 88/88/60 101/208/157 90/90/61 
f 50/50/38 90/90/61 101/208/157 
f 101/208/157 61/209/158 50/50/38 
f 51/51/39 50/50/38 61/209/158 
f 61/209/158 64/189/159 51/51/39 
f 51/51/39 64/189/159 147/179/136 
f 147/179/136 52/52/17 51/51/39 
f 42/42/17 146/178/135 158/210/160 
f 158/210/160 43/43/17 42/42/17 
f 83/83/55 159/211/161 55/163/120 
f 55/163/120 54/212/162 83/83/55 
f 84/84/56 83/83/55 54/212/162 
f 54/212/162 94/213/163 84/84/56 
f 94/213/163 92/105/70 84/84/56 
f 92/105/70 75/214/164 103/106/71 
f 66/66/46 103/106/71 75/214/164 
f 75/214/164 23/215/165 66/66/46 
f 67/67/47 66/66/46 23/215/165 
f 23/215/165 22/182/166 67/67/47 
f 67/67/47 22/182/166 160/216/167 
f 160/216/167 68/68/17 67/67/47 
f 161/217/17 140/166/123 136/143/104 
f 136/143/104 18/18/18 161/217/17 
f 85/85/57 162/218/168 63/156/114 
f 63/156/114 62/219/169 85/85/57 
f 86/86/58 85/85/57 62/219/169 
f 62/219/169 100/220/170 86/86/58 
f 100/220/170 99/108/72 86/86/58 
f 99/108/72 79/221/171 106/110/73 
f 70/70/48 106/110/73 79/221/171 
f 79/221/171 31/222/172 70/70/48 
f 71/71/49 70/70/48 31/222/172 
f 31/222/172 30/185/173 71/71/49 
f 71/71/49 30/185/173 143/171/128 
f 143/171/128 72/72/23 71/71/49 
f 163/223/23 142/170/127 164/224/174 
f 164/224/174 165/225/23 163/223/23 
f 28/28/26 27/27/25 21/149/109 
f 21/149/109 24/226/175 28/28/26 
f 78/78/53 28/28/26 24/226/175 
f 24/226/175 76/227/176 78/78/53 
f 76/227/176 93/97/65 78/78/53 
f 93/97/65 95/228/177 97/98/66 
f 58/58/42 97/98/66 95/228/177 
f 95/228/177 53/229/178 58/58/42 
f 59/59/43 58/58/42 53/229/178 
f 53/229/178 56/193/179 59/59/43 
f 59/59/43 56/193/179 166/230/180 
f 166/230/180 60/60/23 59/59/43 
f 46/46/23 144/174/131 138/157/115 
f 138/157/115 47/47/37 46/46/23 
f 167/231/181 168/232/182 169/233/182 
f 169/233/182 170/234/181 167/231/181 
f 171/235/183 172/236/184 173/237/185 
f 173/237/185 174/238/183 171/235/183 
f 175/239/186 176/240/187 177/241/188 
f 175/239/186 177/241/188 178/242/189 
f 175/239/186 178/242/189 179/243/190 
f 180/244/191 181/245/192 182/246/193 
f 180/244/191 182/246/193 183/247/194 
f 180/244/191 183/247/194 184/248/195 
f 182/246/193 181/245/192 185/249/196 
f 182/246/193 185/249/196 186/250/197 
f 182/246/193 186/250/197 183/247/194 
f 187/251/198 167/231/181 170/234/181 
f 170/234/181 188/252/198 187/251/198 
f 189/253/199 171/235/183 174/238/183 
f 174/238/183 190/254/200 189/253/199 
f 175/239/186 179/243/190 191/255/201 
f 175/239/186 191/255/201 192/256/202 
f 175/239/186 192/256/202 176/240/187 
f 193/257/203 194/258/204 195/259/205 
f 195/259/205 196/260/206 193/257/203 
f 197/261/207 198/262/208 199/263/209 
f 199/263/209 200/264/210 197/261/207 
f 201/265/211 202/266/212 203/267/213 
f 203/267/213 204/268/214 201/265/211 
f 205/269/215 206/270/216 207/271/217 
f 207/271/217 208/272/218 205/269/215 
f 209/273/219 210/274/220 211/275/221 
f 211/275/221 212/276/222 209/273/219 
f 213/277/223 214/278/223 215/279/224 
f 215/279/224 216/280/225 213/277/223 
f 217/281/226 218/282/227 219/283/228 
f 219/283/228 220/284/229 217/281/226 
f 221/285/230 222/286/231 223/287/232 
f 223/287/232 224/288/233 221/285/230 
f 168/232/182 225/289/234 169/290/235 
f 169/290/235 169/233/182 168/232/182 
f 172/236/184 172/291/236 226/292/237 
f 226/292/237 173/237/185 172/236/184 
f 177/241/188 227/293/238 228/294/239 
f 228/294/239 178/242/189 177/241/188 
f 184/248/195 229/295/240 230/296/241 
f 230/296/241 180/244/191 184/248/195 
f 185/249/196 231/297/242 232/298/243 
f 232/298/243 186/250/197 185/249/196 
f 188/252/198 233/299/244 234/300/244 
f 234/300/244 187/251/198 188/252/198 
f 190/254/200 235/301/245 236/302/246 
f 236/302/246 189/253/199 190/254/200 
f 191/255/201 237/303/247 238/304/248 
f 238/304/248 192/256/202 191/255/201 
f 225/305/249 194/258/204 193/257/203 
f 193/257/203 169/306/250 225/305/249 
f 172/307/251 198/262/208 197/261/207 
f 197/261/207 226/308/252 172/307/251 
f 227/309/253 202/266/212 201/265/211 
f 201/265/211 228/310/254 227/309/253 
f 229/311/255 206/270/216 205/269/215 
f 205/269/215 230/312/256 229/311/255 
f 231/313/257 210/274/220 209/273/219 
f 209/273/219 232/314/258 231/313/257 
f 233/315/259 214/278/223 213/277/223 
f 213/277/223 234/316/260 233/315/259 
f 235/317/261 218/282/227 217/281/226 
f 217/281/226 236/318/262 235/317/261 
f 237/319/263 222/286/231 221/285/230 
f 221/285/230 238/320/264 237/319/263 
f 183/247/194 171/321/265 189/322/266 
f 189/322/266 184/248/195 183/247/194 
f 180/244/191 188/323/267 170/324/268 
f 170/324/268 181/245/192 180/244/191 
f 194/258/204 239/325/269 240/326/270 
f 240/326/270 195/259/205 194/258/204 
f 196/260/206 241/327/271 242/328/272 
f 242/328/272 193/257/203 196/260/206 
f 198/329/273 243/330/274 244/331/275 
f 244/331/275 199/332/276 198/329/273 
f 200/333/277 245/334/278 246/335/279 
f 246/335/279 197/336/280 200/333/277 
f 206/270/216 247/337/281 248/338/282 
f 248/338/282 207/271/217 206/270/216 
f 208/272/218 249/339/283 250/340/284 
f 250/340/284 205/269/215 208/272/218 
f 216/341/285 251/342/286 252/343/287 
f 252/343/287 213/344/288 216/341/285 
f 218/345/289 253/346/290 254/347/291 
f 254/347/291 219/348/292 218/345/289 
f 205/269/215 250/340/284 255/349/293 
f 255/349/293 230/312/256 205/269/215 
f 209/273/219 243/330/274 256/350/294 
f 256/350/294 232/314/258 209/273/219 
f 221/285/230 253/346/290 257/351/295 
f 257/351/295 238/320/264 221/285/230 
f 201/352/296 239/325/269 258/353/297 
f 258/353/297 228/354/298 201/352/296 
f 191/255/201 187/355/299 259/356/300 
f 259/356/300 237/303/247 191/255/201 
f 193/257/203 242/328/272 260/357/301 
f 260/357/301 169/306/250 193/257/203 
f 177/241/188 173/358/302 261/359/303 
f 261/359/303 227/293/238 177/241/188 
f 217/360/304 247/337/281 262/361/305 
f 262/361/305 236/362/306 217/360/304 
f 230/296/241 255/363/307 188/323/267 
f 188/323/267 180/244/191 230/296/241 
f 232/298/243 256/364/308 172/365/309 
f 172/365/309 186/250/197 232/298/243 
f 238/304/248 257/366/310 190/367/311 
f 190/367/311 192/256/202 238/304/248 
f 228/294/239 258/368/312 168/369/313 
f 168/369/313 178/242/189 228/294/239 
f 237/319/263 259/370/314 252/343/287 
f 252/343/287 222/286/231 237/319/263 
f 169/233/315 169/290/315 260/371/315 
f 227/309/253 261/372/316 246/335/279 
f 246/335/279 202/266/212 227/309/253 
f 189/253/317 236/302/317 262/373/317 
f 167/374/318 179/243/190 178/242/189 
f 178/242/189 168/369/313 167/374/318 
f 169/375/319 185/249/196 181/245/192 
f 181/245/192 170/324/268 169/375/319 
f 171/321/265 183/247/194 186/250/197 
f 186/250/197 172/365/309 171/321/265 
f 173/358/302 177/241/188 176/240/187 
f 176/240/187 174/376/320 173/358/302 
f 187/355/299 191/255/201 179/243/190 
f 179/243/190 167/374/318 187/355/299 
f 174/376/320 176/240/187 192/256/202 
f 192/256/202 190/367/311 174/376/320 
f 239/325/269 201/352/296 204/377/321 
f 204/377/321 240/326/270 239/325/269 
f 241/327/271 211/378/322 210/379/323 
f 210/379/323 242/328/272 241/327/271 
f 243/330/274 209/273/219 212/276/222 
f 212/276/222 244/331/275 243/330/274 
f 245/334/278 203/267/213 202/266/212 
f 202/266/212 246/335/279 245/334/278 
f 247/337/281 217/360/304 220/380/324 
f 220/380/324 248/338/282 247/337/281 
f 249/339/283 215/381/325 214/382/326 
f 214/382/326 250/340/284 249/339/283 
f 251/342/286 223/287/232 222/286/231 
f 222/286/231 252/343/287 251/342/286 
f 253/346/290 221/285/230 224/288/233 
f 224/288/233 254/347/291 253/346/290 
f 250/340/284 214/382/326 233/383/327 
f 233/383/327 255/349/293 250/340/284 
f 243/330/274 198/329/273 172/384/328 
f 172/384/328 256/350/294 243/330/274 
f 253/346/290 218/345/289 235/385/329 
f 235/385/329 257/351/295 253/346/290 
f 239/325/269 194/258/204 225/305/249 
f 225/305/249 258/353/297 239/325/269 
f 234/300/330 259/386/330 187/251/330 
f 242/328/272 210/379/323 231/387/331 
f 231/387/331 260/357/301 242/328/272 
f 226/292/332 261/388/332 173/237/332 
f 247/337/281 206/270/216 229/311/255 
f 229/311/255 262/361/305 247/337/281 
f 188/252/333 255/389/333 233/299/333 
f 172/236/334 256/390/334 172/291/334 
f 190/254/335 257/391/335 235/301/335 
f 168/232/336 258/392/336 225/289/336 
f 259/370/314 234/393/337 213/344/288 
f 213/344/288 252/343/287 259/370/314 
f 260/394/338 231/297/242 185/249/196 
f 185/249/196 169/375/319 260/394/338 
f 261/372/316 226/395/339 197/336/280 
f 197/336/280 246/335/279 261/372/316 
f 262/396/340 229/295/240 184/248/195 
f 184/248/195 189/322/266 262/396/340 
f 8/8/8 7/7/7 34/34/30 
f 34/34/30 33/33/29 8/8/8 
f 11/11/11 10/10/10 38/38/34 
f 38/38/34 37/37/33 11/11/11 
f 18/18/18 17/17/17 41/41/17 
f 41/41/17 161/217/17 18/18/18 
f 48/48/23 47/47/37 162/218/168 
f 162/218/168 85/85/57 48/48/23 
f 41/41/17 49/49/17 52/52/17 
f 52/52/17 42/42/17 41/41/17 
f 69/69/23 72/72/23 163/223/23 
f 163/223/23 45/45/23 69/69/23 
f 74/74/51 41/41/17 17/17/17 
f 87/87/59 45/45/23 48/48/23 
f 89/89/18 41/41/17 74/74/51 
f 91/91/17 41/41/17 89/89/18 
f 49/49/17 41/41/17 91/91/17 
f 105/109/37 45/45/23 87/87/59 
f 107/111/23 45/45/23 105/109/37 
f 69/69/23 45/45/23 107/111/23 
f 34/34/30 7/7/7 109/113/75 
f 38/38/34 10/10/10 123/127/89 
f 8/8/8 133/137/99 149/198/147 
f 149/198/147 1/1/1 8/8/8 
f 11/11/11 135/139/100 151/200/149 
f 151/200/149 12/12/12 11/11/11 
f 109/140/101 136/143/104 140/166/123 
f 140/166/123 34/165/122 109/140/101 
f 123/154/112 138/157/115 144/174/131 
f 144/174/131 38/173/130 123/154/112 
f 133/168/125 143/171/128 30/185/173 
f 30/185/173 149/184/341 133/168/125 
f 135/176/133 147/179/136 64/189/159 
f 64/189/159 151/188/342 135/176/133 
f 52/52/17 147/179/136 146/178/135 
f 146/178/135 42/42/17 52/52/17 
f 18/18/18 136/143/104 29/142/103 
f 29/142/103 19/19/19 18/18/18 
f 72/72/23 143/171/128 142/170/127 
f 142/170/127 163/223/23 72/72/23 
f 47/47/37 138/157/115 63/156/114 
f 63/156/114 162/218/168 47/47/37 
f 163/223/23 165/225/23 263/397/23 
f 263/397/23 45/45/23 163/223/23 
f 36/36/32 35/35/31 264/398/343 
f 264/398/343 115/119/81 36/36/32 
f 40/40/36 39/39/35 265/399/344 
f 265/399/344 129/133/95 40/40/36 
f 44/44/17 43/43/17 266/400/345 
f 266/400/345 82/82/17 44/44/17 
f 45/45/23 267/401/23 268/402/23 
f 268/402/23 46/46/23 45/45/23 
f 269/403/17 270/404/17 161/217/17 
f 161/217/17 41/41/17 269/403/17 
f 271/405/23 45/45/23 263/397/23 
f 272/406/17 41/41/17 44/44/17 
f 273/407/23 45/45/23 271/405/23 
f 274/408/23 45/45/23 273/407/23 
f 267/401/23 45/45/23 274/408/23 
f 275/409/17 41/41/17 272/406/17 
f 276/410/17 41/41/17 275/409/17 
f 269/403/17 41/41/17 276/410/17 
f 33/33/29 36/36/32 277/411/346 
f 37/37/33 40/40/36 278/412/100 
f 35/35/31 132/136/98 279/413/347 
f 279/413/347 264/398/343 35/35/31 
f 39/39/35 134/138/89 280/414/348 
f 280/414/348 265/399/344 39/39/35 
f 277/415/349 164/224/174 142/170/127 
f 142/170/127 33/169/126 277/415/349 
f 278/416/350 158/210/160 146/178/135 
f 146/178/135 37/177/134 278/416/350 
f 132/164/121 141/167/124 160/216/167 
f 160/216/167 279/417/351 132/164/121 
f 134/172/129 145/175/132 166/230/180 
f 166/230/180 280/418/352 134/172/129 
f 43/43/17 158/210/160 139/160/117 
f 139/160/117 266/400/345 43/43/17 
f 270/404/17 141/167/124 140/166/123 
f 140/166/123 161/217/17 270/404/17 
f 165/225/23 164/224/174 137/146/106 
f 137/146/106 26/26/24 165/225/23 
f 268/402/23 145/175/132 144/174/131 
f 144/174/131 46/46/23 268/402/23 
f 26/26/24 25/25/23 263/397/23 
f 263/397/23 165/225/23 26/26/24 
f 267/401/23 57/57/23 60/60/23 
f 60/60/23 268/402/23 267/401/23 
f 269/403/17 65/65/17 68/68/17 
f 68/68/17 270/404/17 269/403/17 
f 25/25/23 77/77/23 271/405/23 
f 271/405/23 263/397/23 25/25/23 
f 82/82/17 81/81/17 272/406/17 
f 272/406/17 44/44/17 82/82/17 
f 77/77/23 96/96/64 273/407/23 
f 273/407/23 271/405/23 77/77/23 
f 273/407/23 96/96/64 98/99/23 
f 98/99/23 274/408/23 273/407/23 
f 274/408/23 98/99/23 57/57/23 
f 57/57/23 267/401/23 274/408/23 
f 81/81/17 102/104/69 275/409/17 
f 275/409/17 272/406/17 81/81/17 
f 275/409/17 102/104/69 104/107/17 
f 104/107/17 276/410/17 275/409/17 
f 276/410/17 104/107/17 65/65/17 
f 65/65/17 269/403/17 276/410/17 
f 115/119/81 114/118/80 277/411/346 
f 277/411/346 36/36/32 115/119/81 
f 129/133/95 128/132/94 278/412/100 
f 278/412/100 40/40/36 129/133/95 
f 114/147/107 137/146/106 164/224/174 
f 164/224/174 277/415/349 114/147/107 
f 128/161/118 139/160/117 158/210/160 
f 158/210/160 278/416/350 128/161/118 
f 68/68/17 160/216/167 141/167/124 
f 141/167/124 270/404/17 68/68/17 
f 60/60/23 166/230/180 145/175/132 
f 145/175/132 268/402/23 60/60/23 
f 150/186/139 116/120/82 115/119/81 
f 115/119/81 264/398/343 155/197/146 
f 150/186/139 115/119/81 155/197/146 
f 155/197/146 154/196/145 110/114/76 
f 150/186/139 155/197/146 110/114/76 
f 150/186/139 110/114/76 113/117/79 
f 152/190/141 130/134/96 129/133/95 
f 129/133/95 265/399/344 157/205/154 
f 152/190/141 129/133/95 157/205/154 
f 157/205/154 156/204/153 124/128/90 
f 152/190/141 157/205/154 124/128/90 
f 152/190/141 124/128/90 127/131/93 
f 82/82/17 266/400/345 159/211/161 
f 159/211/161 83/83/55 82/82/17 
f 155/197/146 264/398/343 279/413/347 
f 279/413/347 148/195/144 155/197/146 
f 157/205/154 265/399/344 280/414/348 
f 280/414/348 153/203/152 157/205/154 
f 148/181/353 279/417/351 160/216/167 
f 160/216/167 22/182/166 148/181/353 
f 153/192/354 280/418/352 166/230/180 
f 166/230/180 56/193/179 153/192/354 
f 266/400/345 139/160/117 55/163/120 
f 55/163/120 159/211/161 266/400/345 
f 26/26/24 137/146/106 21/149/109 
f 21/149/109 27/27/25 26/26/24 
# 0 polygons - 536 triangles

