# Blender 4.3.2
# www.blender.org
mtllib Coin.mtl
o sm_Coin
v -0.000090 -0.026066 -0.010948
v -0.114591 -0.025674 -0.010948
v -0.109475 -0.042425 -0.010948
v -0.101913 -0.058227 -0.010948
v -0.092076 -0.072725 -0.010948
v -0.080178 -0.085602 -0.010948
v -0.066492 -0.096566 -0.010948
v -0.051320 -0.105374 -0.010948
v -0.035005 -0.111826 -0.010948
v -0.017902 -0.115778 -0.010948
v -0.000405 -0.117147 -0.010948
v 0.017104 -0.115899 -0.010948
v 0.034232 -0.112061 -0.010948
v 0.050595 -0.105721 -0.010948
v 0.065826 -0.097020 -0.010948
v 0.079588 -0.086147 -0.010948
v 0.091571 -0.073355 -0.010948
v 0.101510 -0.058923 -0.010948
v 0.109182 -0.043175 -0.010948
v 0.114412 -0.026461 -0.010948
v -0.000090 -0.026066 -0.010948
v 0.114412 -0.026461 -0.010948
v 0.117089 -0.009157 -0.010948
v 0.117147 0.008351 -0.010948
v 0.114591 0.025677 -0.010948
v 0.109475 0.042424 -0.010948
v 0.101913 0.058227 -0.010948
v 0.092076 0.072725 -0.010948
v 0.080178 0.085601 -0.010948
v 0.066492 0.096566 -0.010948
v 0.051320 0.105373 -0.010948
v 0.035005 0.111826 -0.010948
v 0.017903 0.115778 -0.010948
v 0.000405 0.117147 -0.010948
v -0.017104 0.115898 -0.010948
v -0.034232 0.112064 -0.010948
v -0.050595 0.105721 -0.010948
v -0.065826 0.097020 -0.010948
v -0.079588 0.086151 -0.010948
v -0.091571 0.073355 -0.010948
v -0.101510 0.058922 -0.010948
v -0.109182 0.043175 -0.010948
v -0.114412 0.026461 -0.010948
v -0.117089 0.009157 -0.010948
v -0.117147 -0.008352 -0.010948
v -0.114591 -0.025674 -0.010948
v -0.017104 0.115898 -0.010948
v 0.000405 0.117147 -0.010948
v 0.000412 0.120000 0.000002
v -0.017522 0.118722 0.000002
v -0.017108 0.115898 0.010952
v 0.000401 0.117147 0.010952
v -0.034232 0.112060 0.010952
v -0.035067 0.114789 0.000002
v -0.034232 0.112064 -0.010948
v -0.050595 0.105721 0.010952
v -0.050595 0.105721 -0.010948
v -0.051825 0.108296 0.000002
v -0.065826 0.097020 0.010952
v -0.067430 0.099382 0.000002
v -0.065826 0.097020 -0.010948
v -0.079588 0.086151 0.010952
v -0.079588 0.086151 -0.010948
v -0.081525 0.088245 0.000002
v -0.091571 0.073355 0.010952
v -0.091571 0.073355 -0.010948
v -0.093801 0.075142 0.000002
v -0.101510 0.058922 0.010952
v -0.101510 0.058922 -0.010948
v -0.103982 0.060358 0.000002
v -0.109182 0.043175 0.010952
v -0.111837 0.044226 0.000002
v -0.109182 0.043175 -0.010948
v -0.114412 0.026461 0.010952
v -0.114412 0.026461 -0.010948
v -0.117198 0.027105 0.000002
v -0.117089 0.009157 0.010952
v -0.119938 0.009377 0.000002
v -0.117089 0.009157 -0.010948
v -0.117147 -0.008355 0.010952
v -0.117147 -0.008352 -0.010948
v -0.120000 -0.008557 0.000002
v -0.114591 -0.025677 0.010952
v -0.114591 -0.025674 -0.010948
v -0.117382 -0.026300 0.000002
v -0.109475 -0.042425 0.010952
v -0.109475 -0.042425 -0.010948
v -0.112141 -0.043457 0.000002
v -0.101913 -0.058227 0.010952
v -0.101913 -0.058227 -0.010948
v -0.104395 -0.059644 0.000002
v -0.092076 -0.072725 0.010952
v -0.092076 -0.072725 -0.010948
v -0.094317 -0.074498 0.000002
v -0.080178 -0.085602 0.010952
v -0.080178 -0.085602 -0.010948
v -0.082129 -0.087685 0.000002
v -0.066492 -0.096566 0.010952
v -0.066492 -0.096566 -0.010948
v -0.068111 -0.098917 0.000002
v -0.051320 -0.105374 0.010952
v -0.052572 -0.107937 0.000002
v -0.051320 -0.105374 -0.010948
v -0.035005 -0.111826 0.010952
v -0.035005 -0.111826 -0.010948
v -0.035854 -0.114547 0.000002
v -0.017902 -0.115781 0.010952
v -0.017902 -0.115778 -0.010948
v -0.018338 -0.118598 0.000002
v -0.000405 -0.117147 0.010952
v -0.000405 -0.117147 -0.010948
v -0.000412 -0.120000 0.000002
v 0.017903 0.115781 0.010952
v 0.000401 0.117147 0.010952
v 0.000412 0.120000 0.000002
v 0.018338 0.118597 0.000002
v 0.017903 0.115778 -0.010948
v 0.000405 0.117147 -0.010948
v 0.035005 0.111826 -0.010948
v 0.035855 0.114547 0.000002
v 0.035001 0.111826 0.010952
v 0.051320 0.105373 -0.010948
v 0.051320 0.105373 0.010952
v 0.052569 0.107937 0.000002
v 0.066492 0.096566 -0.010948
v 0.066492 0.096566 0.010952
v 0.068111 0.098917 0.000002
v 0.080178 0.085601 -0.010948
v 0.080178 0.085601 0.010952
v 0.082130 0.087685 0.000002
v 0.092076 0.072725 -0.010948
v 0.092076 0.072725 0.010952
v 0.094317 0.074498 0.000002
v 0.101913 0.058227 -0.010948
v 0.101913 0.058227 0.010952
v 0.104396 0.059644 0.000002
v 0.109475 0.042424 -0.010948
v 0.109475 0.042424 0.010952
v 0.112141 0.043457 0.000002
v 0.114591 0.025677 -0.010948
v 0.114591 0.025677 0.010952
v 0.117382 0.026300 0.000002
v 0.117147 0.008351 -0.010948
v 0.117147 0.008355 0.010952
v 0.120000 0.008557 0.000002
v 0.117089 -0.009157 -0.010948
v 0.117089 -0.009154 0.010952
v 0.119938 -0.009377 0.000002
v 0.114412 -0.026461 -0.010948
v 0.114412 -0.026461 0.010952
v 0.117199 -0.027106 0.000002
v 0.109182 -0.043175 -0.010948
v 0.111837 -0.044223 0.000002
v 0.109182 -0.043172 0.010952
v 0.101510 -0.058923 -0.010948
v 0.101510 -0.058923 0.010952
v 0.103982 -0.060358 0.000002
v 0.091571 -0.073355 -0.010948
v 0.091571 -0.073355 0.010952
v 0.093801 -0.075142 0.000002
v 0.079588 -0.086147 -0.010948
v 0.079588 -0.086151 0.010952
v 0.081526 -0.088246 0.000002
v 0.065826 -0.097020 -0.010948
v 0.065826 -0.097020 0.010952
v 0.067430 -0.099382 0.000002
v 0.050595 -0.105721 -0.010948
v 0.050595 -0.105721 0.010952
v 0.051825 -0.108296 0.000002
v 0.034232 -0.112061 -0.010948
v 0.034232 -0.112061 0.010952
v 0.035067 -0.114789 0.000002
v 0.017104 -0.115899 -0.010948
v 0.017104 -0.115899 0.010952
v 0.017522 -0.118722 0.000002
v -0.000405 -0.117147 -0.010948
v -0.000405 -0.117147 0.010952
v -0.000412 -0.120000 0.000002
v 0.000789 0.001474 0.010549
v 0.035001 0.111826 0.010952
v 0.051320 0.105373 0.010952
v 0.066492 0.096566 0.010952
v 0.017903 0.115781 0.010952
v 0.080178 0.085601 0.010952
v 0.000401 0.117147 0.010952
v 0.092076 0.072725 0.010952
v -0.017108 0.115898 0.010952
v 0.101913 0.058227 0.010952
v -0.034232 0.112060 0.010952
v 0.109475 0.042424 0.010952
v -0.050595 0.105721 0.010952
v 0.114591 0.025677 0.010952
v -0.065826 0.097020 0.010952
v 0.117147 0.008355 0.010952
v -0.079588 0.086151 0.010952
v 0.117089 -0.009154 0.010952
v -0.091571 0.073355 0.010952
v 0.114412 -0.026461 0.010952
v -0.101510 0.058922 0.010952
v 0.109182 -0.043172 0.010952
v -0.109182 0.043175 0.010952
v 0.101510 -0.058923 0.010952
v -0.114412 0.026461 0.010952
v 0.091571 -0.073355 0.010952
v -0.117089 0.009157 0.010952
v 0.079588 -0.086151 0.010952
v -0.117147 -0.008355 0.010952
v 0.065826 -0.097020 0.010952
v -0.114591 -0.025677 0.010952
v 0.050595 -0.105721 0.010952
v -0.109475 -0.042425 0.010952
v 0.034232 -0.112061 0.010952
v -0.101913 -0.058227 0.010952
v 0.017104 -0.115899 0.010952
v -0.092076 -0.072725 0.010952
v -0.000405 -0.117147 0.010952
v -0.080178 -0.085602 0.010952
v -0.017902 -0.115781 0.010952
v -0.066492 -0.096566 0.010952
v -0.035005 -0.111826 0.010952
v -0.051320 -0.105374 0.010952
vn -0.0039 0.0039 -1.0000
vn 0.0039 0.0039 -1.0000
vn 0.0039 1.0000 -0.0003
vn 0.0039 0.9686 -0.2485
vn -0.1373 0.9608 -0.2410
vn -0.1447 0.9895 -0.0000
vn -0.1373 0.9608 0.2410
vn 0.0039 0.9686 0.2485
vn -0.2784 0.9294 0.2422
vn -0.2941 0.9529 0.0735
vn -0.2784 0.9294 -0.2422
vn -0.4196 0.8745 0.2433
vn -0.4196 0.8745 -0.2433
vn -0.4267 0.9044 -0.0000
vn -0.5451 0.8039 0.2379
vn -0.5608 0.8274 0.0293
vn -0.5451 0.8039 -0.2379
vn -0.6549 0.7098 0.2594
vn -0.6549 0.7098 -0.2594
vn -0.6784 0.7333 0.0443
vn -0.7569 0.6078 0.2402
vn -0.7569 0.6078 -0.2402
vn -0.7804 0.6235 0.0470
vn -0.8353 0.4902 0.2491
vn -0.8353 0.4902 -0.2490
vn -0.8638 0.5039 -0.0000
vn -0.8980 0.3569 0.2573
vn -0.9282 0.3720 -0.0000
vn -0.8980 0.3569 -0.2573
vn -0.9451 0.2157 0.2455
vn -0.9451 0.2157 -0.2455
vn -0.9748 0.2232 -0.0000
vn -0.9608 0.0745 0.2671
vn -0.9972 0.0743 -0.0000
vn -0.9608 0.0745 -0.2671
vn -0.9686 -0.0667 0.2395
vn -0.9686 -0.0667 -0.2394
vn -0.9972 -0.0743 -0.0000
vn -0.9451 -0.2157 0.2455
vn -0.9451 -0.2157 -0.2455
vn -0.9748 -0.2231 -0.0000
vn -0.8980 -0.3490 0.2678
vn -0.8980 -0.3490 -0.2678
vn -0.9294 -0.3647 -0.0565
vn -0.8353 -0.4823 0.2639
vn -0.8353 -0.4823 -0.2639
vn -0.8667 -0.4980 -0.0293
vn -0.7569 -0.6000 0.2592
vn -0.7569 -0.6000 -0.2592
vn -0.7804 -0.6235 -0.0470
vn -0.6627 -0.7098 0.2387
vn -0.6627 -0.7098 -0.2387
vn -0.6784 -0.7333 -0.0444
vn -0.5451 -0.7961 0.2630
vn -0.5451 -0.7961 -0.2629
vn -0.5663 -0.8242 -0.0000
vn -0.4196 -0.8745 0.2433
vn -0.4353 -0.8980 -0.0637
vn -0.4196 -0.8745 -0.2433
vn -0.2863 -0.9216 0.2622
vn -0.2863 -0.9216 -0.2622
vn -0.2941 -0.9529 -0.0735
vn -0.1451 -0.9529 0.2662
vn -0.1451 -0.9529 -0.2662
vn -0.1521 -0.9884 -0.0001
vn -0.0039 -0.9686 0.2485
vn -0.0039 -0.9686 -0.2485
vn -0.0039 -1.0000 -0.0000
vn 0.0040 0.9686 0.2485
vn 0.1451 0.9529 0.2662
vn 0.1521 0.9884 -0.0001
vn 0.1451 0.9529 -0.2662
vn 0.2863 0.9216 -0.2622
vn 0.2941 0.9529 0.0736
vn 0.2863 0.9216 0.2623
vn 0.4196 0.8745 -0.2433
vn 0.4196 0.8745 0.2433
vn 0.4353 0.8980 0.0637
vn 0.5451 0.7961 -0.2629
vn 0.5451 0.7961 0.2629
vn 0.5663 0.8242 -0.0000
vn 0.6627 0.7098 -0.2387
vn 0.6627 0.7098 0.2387
vn 0.6784 0.7333 0.0444
vn 0.7569 0.6000 -0.2591
vn 0.7569 0.6000 0.2591
vn 0.7804 0.6235 0.0470
vn 0.8353 0.4823 -0.2639
vn 0.8353 0.4823 0.2639
vn 0.8667 0.4980 0.0293
vn 0.8980 0.3490 -0.2678
vn 0.8980 0.3490 0.2678
vn 0.9294 0.3647 0.0565
vn 0.9451 0.2157 -0.2455
vn 0.9451 0.2157 0.2455
vn 0.9748 0.2231 -0.0000
vn 0.9686 0.0667 -0.2395
vn 0.9686 0.0667 0.2394
vn 0.9972 0.0743 -0.0000
vn 0.9608 -0.0745 -0.2671
vn 0.9608 -0.0745 0.2671
vn 0.9972 -0.0743 -0.0000
vn 0.9451 -0.2157 -0.2455
vn 0.9451 -0.2157 0.2455
vn 0.9748 -0.2232 -0.0000
vn 0.8980 -0.3569 -0.2572
vn 0.9282 -0.3720 -0.0000
vn 0.8980 -0.3569 0.2573
vn 0.8353 -0.4902 -0.2490
vn 0.8353 -0.4902 0.2490
vn 0.8636 -0.5041 -0.0000
vn 0.7569 -0.6078 -0.2402
vn 0.7569 -0.6078 0.2402
vn 0.7804 -0.6235 -0.0470
vn 0.6549 -0.7098 -0.2594
vn 0.6549 -0.7098 0.2594
vn 0.6784 -0.7333 -0.0444
vn 0.5451 -0.8039 -0.2379
vn 0.5451 -0.8039 0.2379
vn 0.5608 -0.8274 0.0293
vn 0.4196 -0.8745 -0.2433
vn 0.4196 -0.8745 0.2433
vn 0.4268 -0.9044 -0.0000
vn 0.2784 -0.9294 -0.2423
vn 0.2784 -0.9294 0.2423
vn 0.2941 -0.9529 -0.0735
vn 0.1373 -0.9608 -0.2410
vn 0.1372 -0.9608 0.2410
vn 0.1448 -0.9895 -0.0000
vn -0.0039 -0.0039 1.0000
vn 0.0039 -0.0039 1.0000
vn 0.0040 -0.0039 1.0000
vn -0.0039 0.0039 1.0000
vn 0.0039 0.0039 1.0000
vn 0.0039 0.0040 1.0000
vn 0.0040 0.0039 1.0000
vt 0.833806 0.028371
vt 0.883657 0.012731
vt 0.883657 0.350936
vt 0.786887 0.050853
vt 0.743879 0.080177
vt 0.706735 0.115366
vt 0.674478 0.155442
vt 0.648087 0.200406
vt 0.629515 0.248302
vt 0.617785 0.299130
vt 0.613875 0.350936
vt 0.617785 0.401764
vt 0.629515 0.452593
vt 0.648087 0.500489
vt 0.674478 0.545452
vt 0.706735 0.586506
vt 0.743879 0.621695
vt 0.786887 0.651019
vt 0.833806 0.673501
vt 0.883657 0.688163
vt 0.014686 0.628537
vt 0.021529 0.578686
vt 0.352891 0.578686
vt 0.014686 0.679366
vt 0.021529 0.729217
vt 0.037168 0.778090
vt 0.058673 0.824031
vt 0.087019 0.866062
vt 0.122208 0.903206
vt 0.161307 0.934485
vt 0.205293 0.959899
vt 0.253189 0.978471
vt 0.302062 0.990201
vt 0.352891 0.994111
vt 0.403719 0.990201
vt 0.452593 0.978471
vt 0.500489 0.959899
vt 0.544475 0.934485
vt 0.583574 0.903206
vt 0.618763 0.866062
vt 0.647109 0.824031
vt 0.668613 0.778090
vt 0.684253 0.729217
vt 0.691095 0.679366
vt 0.691095 0.628537
vt 0.684253 0.578686
vt 0.951102 0.000024
vt 0.981404 0.000024
vt 0.981404 0.047920
vt 0.951102 0.047920
vt 0.921778 0.047920
vt 0.921778 0.000024
vt 0.921778 0.094839
vt 0.951102 0.094839
vt 0.981404 0.094839
vt 0.921778 0.142735
vt 0.981404 0.142735
vt 0.951102 0.142735
vt 0.921778 0.190631
vt 0.951102 0.190631
vt 0.981404 0.190631
vt 0.921778 0.238527
vt 0.981404 0.238527
vt 0.951102 0.238527
vt 0.921778 0.285445
vt 0.981404 0.285445
vt 0.951102 0.285445
vt 0.921778 0.333341
vt 0.981404 0.333341
vt 0.951102 0.333341
vt 0.921778 0.381237
vt 0.951102 0.381237
vt 0.981404 0.381237
vt 0.921778 0.428156
vt 0.981404 0.428156
vt 0.951102 0.428156
vt 0.921778 0.476052
vt 0.951102 0.476052
vt 0.981404 0.476052
vt 0.921778 0.523948
vt 0.981404 0.523948
vt 0.951102 0.523948
vt 0.921778 0.571844
vt 0.981404 0.571844
vt 0.951102 0.571844
vt 0.921778 0.618763
vt 0.981404 0.618763
vt 0.951102 0.618763
vt 0.921778 0.666659
vt 0.981404 0.666659
vt 0.951102 0.666659
vt 0.921778 0.714555
vt 0.981404 0.714555
vt 0.951102 0.714555
vt 0.921778 0.761473
vt 0.981404 0.761473
vt 0.951102 0.761473
vt 0.921778 0.809369
vt 0.981404 0.809369
vt 0.951102 0.809369
vt 0.921778 0.857265
vt 0.951102 0.857265
vt 0.981404 0.857265
vt 0.921778 0.905161
vt 0.981404 0.905161
vt 0.951102 0.905161
vt 0.921778 0.952080
vt 0.981404 0.952080
vt 0.951102 0.952080
vt 0.921778 0.999976
vt 0.981404 0.999976
vt 0.951102 0.999976
vt 0.416426 0.539587
vt 0.374395 0.557182
vt 0.291310 0.286423
vt 0.454548 0.516128
vt 0.330409 0.567934
vt 0.488759 0.487782
vt 0.285445 0.570867
vt 0.518083 0.453570
vt 0.240482 0.565979
vt 0.541542 0.415449
vt 0.196496 0.554250
vt 0.558159 0.374395
vt 0.154465 0.534700
vt 0.568912 0.330409
vt 0.117321 0.510263
vt 0.571844 0.286423
vt 0.084087 0.478984
vt 0.569889 0.246347
vt 0.055740 0.443796
vt 0.561092 0.208225
vt 0.033258 0.404697
vt 0.547407 0.171082
vt 0.018596 0.362666
vt 0.528835 0.135893
vt 0.009799 0.317702
vt 0.505376 0.104614
vt 0.007844 0.273716
vt 0.478007 0.076267
vt 0.012731 0.233640
vt 0.446728 0.051830
vt 0.023484 0.194541
vt 0.412517 0.032281
vt 0.039123 0.157397
vt 0.376350 0.018596
vt 0.059650 0.123186
vt 0.338229 0.008822
vt 0.085064 0.092884
vt 0.299130 0.005889
vt 0.114388 0.065515
vt 0.260031 0.006867
vt 0.146645 0.043033
vt 0.220932 0.013709
vt 0.182811 0.025439
s 1
usemtl m_Coin
f 3/1/1 2/2/1 1/3/1
f 4/4/1 3/1/1 1/3/1
f 5/5/1 4/4/1 1/3/1
f 6/6/1 5/5/1 1/3/1
f 7/7/1 6/6/1 1/3/1
f 8/8/2 7/7/1 1/3/1
f 9/9/1 8/8/2 1/3/1
f 10/10/1 9/9/1 1/3/1
f 11/11/1 10/10/1 1/3/1
f 12/12/1 11/11/1 1/3/1
f 13/13/2 12/12/1 1/3/1
f 14/14/2 13/13/2 1/3/1
f 15/15/1 14/14/2 1/3/1
f 16/16/1 15/15/1 1/3/1
f 17/17/1 16/16/1 1/3/1
f 18/18/1 17/17/1 1/3/1
f 18/18/1 1/3/1 19/19/1
f 1/3/1 20/20/1 19/19/1
f 23/21/1 22/22/1 21/23/1
f 24/24/1 23/21/1 21/23/1
f 25/25/1 24/24/1 21/23/1
f 26/26/1 25/25/1 21/23/1
f 27/27/1 26/26/1 21/23/1
f 28/28/1 27/27/1 21/23/1
f 29/29/1 28/28/1 21/23/1
f 30/30/2 29/29/1 21/23/1
f 31/31/1 30/30/2 21/23/1
f 32/32/2 31/31/1 21/23/1
f 33/33/1 32/32/2 21/23/1
f 34/34/1 33/33/1 21/23/1
f 34/34/1 21/23/1 35/35/1
f 21/23/1 36/36/1 35/35/1
f 36/36/1 21/23/1 37/37/2
f 21/23/1 38/38/1 37/37/2
f 39/39/1 38/38/1 21/23/1
f 40/40/1 39/39/1 21/23/1
f 41/41/2 40/40/1 21/23/1
f 42/42/1 41/41/2 21/23/1
f 43/43/1 42/42/1 21/23/1
f 44/44/1 43/43/1 21/23/1
f 45/45/1 44/44/1 21/23/1
f 46/46/1 45/45/1 21/23/1
f 49/47/3 48/48/4 47/49/5
f 50/50/6 49/47/3 47/49/5
f 50/50/6 51/51/7 49/47/3
f 51/51/7 52/52/8 49/47/3
f 53/53/9 51/51/7 50/50/6
f 50/50/6 47/49/5 54/54/10
f 54/54/10 53/53/9 50/50/6
f 47/49/5 55/55/11 54/54/10
f 56/56/12 53/53/9 54/54/10
f 54/54/10 55/55/11 57/57/13
f 58/58/14 56/56/12 54/54/10
f 58/58/14 54/54/10 57/57/13
f 59/59/15 56/56/12 58/58/14
f 58/58/14 57/57/13 60/60/16
f 60/60/16 59/59/15 58/58/14
f 57/57/13 61/61/17 60/60/16
f 62/62/18 59/59/15 60/60/16
f 60/60/16 61/61/17 63/63/19
f 64/64/20 62/62/18 60/60/16
f 64/64/20 60/60/16 63/63/19
f 65/65/21 62/62/18 64/64/20
f 64/64/20 63/63/19 66/66/22
f 67/67/23 65/65/21 64/64/20
f 67/67/23 64/64/20 66/66/22
f 68/68/24 65/65/21 67/67/23
f 67/67/23 66/66/22 69/69/25
f 70/70/26 68/68/24 67/67/23
f 70/70/26 67/67/23 69/69/25
f 71/71/27 68/68/24 70/70/26
f 70/70/26 69/69/25 72/72/28
f 72/72/28 71/71/27 70/70/26
f 69/69/25 73/73/29 72/72/28
f 74/74/30 71/71/27 72/72/28
f 72/72/28 73/73/29 75/75/31
f 76/76/32 74/74/30 72/72/28
f 76/76/32 72/72/28 75/75/31
f 77/77/33 74/74/30 76/76/32
f 76/76/32 75/75/31 78/78/34
f 78/78/34 77/77/33 76/76/32
f 75/75/31 79/79/35 78/78/34
f 80/80/36 77/77/33 78/78/34
f 78/78/34 79/79/35 81/81/37
f 82/82/38 80/80/36 78/78/34
f 82/82/38 78/78/34 81/81/37
f 83/83/39 80/80/36 82/82/38
f 82/82/38 81/81/37 84/84/40
f 85/85/41 83/83/39 82/82/38
f 85/85/41 82/82/38 84/84/40
f 86/86/42 83/83/39 85/85/41
f 85/85/41 84/84/40 87/87/43
f 88/88/44 86/86/42 85/85/41
f 88/88/44 85/85/41 87/87/43
f 89/89/45 86/86/42 88/88/44
f 88/88/44 87/87/43 90/90/46
f 91/91/47 89/89/45 88/88/44
f 91/91/47 88/88/44 90/90/46
f 92/92/48 89/89/45 91/91/47
f 91/91/47 90/90/46 93/93/49
f 94/94/50 92/92/48 91/91/47
f 94/94/50 91/91/47 93/93/49
f 95/95/51 92/92/48 94/94/50
f 94/94/50 93/93/49 96/96/52
f 97/97/53 95/95/51 94/94/50
f 97/97/53 94/94/50 96/96/52
f 98/98/54 95/95/51 97/97/53
f 97/97/53 96/96/52 99/99/55
f 100/100/56 98/98/54 97/97/53
f 100/100/56 97/97/53 99/99/55
f 101/101/57 98/98/54 100/100/56
f 100/100/56 99/99/55 102/102/58
f 102/102/58 101/101/57 100/100/56
f 99/99/55 103/103/59 102/102/58
f 104/104/60 101/101/57 102/102/58
f 102/102/58 103/103/59 105/105/61
f 106/106/62 104/104/60 102/102/58
f 106/106/62 102/102/58 105/105/61
f 107/107/63 104/104/60 106/106/62
f 106/106/62 105/105/61 108/108/64
f 109/109/65 107/107/63 106/106/62
f 109/109/65 106/106/62 108/108/64
f 110/110/66 107/107/63 109/109/65
f 109/109/65 108/108/64 111/111/67
f 112/112/68 110/110/66 109/109/65
f 112/112/68 109/109/65 111/111/67
f 115/47/3 114/48/69 113/49/70
f 116/50/71 115/47/3 113/49/70
f 116/50/71 117/51/72 115/47/3
f 117/51/72 118/52/4 115/47/3
f 119/53/73 117/51/72 116/50/71
f 116/50/71 113/49/70 120/54/74
f 120/54/74 119/53/73 116/50/71
f 113/49/70 121/55/75 120/54/74
f 122/56/76 119/53/73 120/54/74
f 120/54/74 121/55/75 123/57/77
f 124/58/78 122/56/76 120/54/74
f 124/58/78 120/54/74 123/57/77
f 125/59/79 122/56/76 124/58/78
f 124/58/78 123/57/77 126/61/80
f 127/60/81 125/59/79 124/58/78
f 127/60/81 124/58/78 126/61/80
f 128/62/82 125/59/79 127/60/81
f 127/60/81 126/61/80 129/63/83
f 130/64/84 128/62/82 127/60/81
f 130/64/84 127/60/81 129/63/83
f 131/65/85 128/62/82 130/64/84
f 130/64/84 129/63/83 132/66/86
f 133/67/87 131/65/85 130/64/84
f 133/67/87 130/64/84 132/66/86
f 134/68/88 131/65/85 133/67/87
f 133/67/87 132/66/86 135/69/89
f 136/70/90 134/68/88 133/67/87
f 136/70/90 133/67/87 135/69/89
f 137/71/91 134/68/88 136/70/90
f 136/70/90 135/69/89 138/73/92
f 139/72/93 137/71/91 136/70/90
f 139/72/93 136/70/90 138/73/92
f 140/74/94 137/71/91 139/72/93
f 139/72/93 138/73/92 141/75/95
f 142/76/96 140/74/94 139/72/93
f 142/76/96 139/72/93 141/75/95
f 143/77/97 140/74/94 142/76/96
f 142/76/96 141/75/95 144/79/98
f 145/78/99 143/77/97 142/76/96
f 145/78/99 142/76/96 144/79/98
f 146/80/100 143/77/97 145/78/99
f 145/78/99 144/79/98 147/81/101
f 148/82/102 146/80/100 145/78/99
f 148/82/102 145/78/99 147/81/101
f 149/83/103 146/80/100 148/82/102
f 148/82/102 147/81/101 150/84/104
f 151/85/105 149/83/103 148/82/102
f 151/85/105 148/82/102 150/84/104
f 152/86/106 149/83/103 151/85/105
f 151/85/105 150/84/104 153/88/107
f 153/88/107 152/86/106 151/85/105
f 150/84/104 154/87/108 153/88/107
f 155/89/109 152/86/106 153/88/107
f 153/88/107 154/87/108 156/90/110
f 157/91/111 155/89/109 153/88/107
f 157/91/111 153/88/107 156/90/110
f 158/92/112 155/89/109 157/91/111
f 157/91/111 156/90/110 159/93/113
f 160/94/114 158/92/112 157/91/111
f 160/94/114 157/91/111 159/93/113
f 161/95/115 158/92/112 160/94/114
f 160/94/114 159/93/113 162/96/116
f 163/97/117 161/95/115 160/94/114
f 163/97/117 160/94/114 162/96/116
f 164/98/118 161/95/115 163/97/117
f 163/97/117 162/96/116 165/99/119
f 166/100/120 164/98/118 163/97/117
f 166/100/120 163/97/117 165/99/119
f 167/101/121 164/98/118 166/100/120
f 166/100/120 165/99/119 168/103/122
f 169/102/123 167/101/121 166/100/120
f 169/102/123 166/100/120 168/103/122
f 170/104/124 167/101/121 169/102/123
f 169/102/123 168/103/122 171/105/125
f 172/106/126 170/104/124 169/102/123
f 172/106/126 169/102/123 171/105/125
f 173/107/127 170/104/124 172/106/126
f 172/106/126 171/105/125 174/108/128
f 175/109/129 173/107/127 172/106/126
f 175/109/129 172/106/126 174/108/128
f 176/110/67 173/107/127 175/109/129
f 175/109/129 174/108/128 177/111/66
f 178/112/68 176/110/67 175/109/129
f 178/112/68 175/109/129 177/111/66
f 181/113/130 180/114/130 179/115/130
f 181/113/130 179/115/130 182/116/130
f 180/114/130 183/117/130 179/115/130
f 184/118/130 182/116/130 179/115/130
f 185/119/130 179/115/130 183/117/130
f 186/120/130 184/118/130 179/115/130
f 179/115/130 185/119/130 187/121/131
f 186/120/130 179/115/130 188/122/130
f 179/115/130 187/121/131 189/123/131
f 179/115/130 190/124/130 188/122/130
f 191/125/132 179/115/130 189/123/131
f 192/126/130 190/124/130 179/115/130
f 179/115/130 191/125/132 193/127/131
f 194/128/130 192/126/130 179/115/130
f 179/115/130 193/127/131 195/129/131
f 194/128/130 179/115/130 196/130/133
f 197/131/131 179/115/130 195/129/131
f 198/132/133 196/130/133 179/115/130
f 179/115/130 197/131/131 199/133/131
f 200/134/133 198/132/133 179/115/130
f 201/135/131 179/115/130 199/133/131
f 200/134/133 179/115/130 202/136/133
f 201/135/131 203/137/131 179/115/130
f 179/115/130 204/138/133 202/136/133
f 203/137/131 205/139/131 179/115/130
f 204/138/133 179/115/130 206/140/133
f 205/139/131 207/141/134 179/115/130
f 179/115/130 208/142/133 206/140/133
f 207/141/134 209/143/134 179/115/130
f 179/115/130 210/144/133 208/142/133
f 209/143/134 211/145/135 179/115/130
f 210/144/133 179/115/130 212/146/133
f 179/115/130 211/145/135 213/147/134
f 179/115/130 214/148/133 212/146/133
f 215/149/134 179/115/130 213/147/134
f 179/115/130 216/150/134 214/148/133
f 215/149/134 217/151/136 179/115/130
f 216/150/134 179/115/130 218/152/134
f 217/151/136 219/153/134 179/115/130
f 220/154/134 218/152/134 179/115/130
f 221/155/134 179/115/130 219/153/134
f 221/155/134 220/154/134 179/115/130
